<?xml version="1.0" standalone="no"?>
<!DOCTYPE svg PUBLIC "-//W3C//DTD SVG 1.1//EN" "http://www.w3.org/Graphics/SVG/1.1/DTD/svg11.dtd" >
<svg xmlns="http://www.w3.org/2000/svg">
<metadata></metadata>
<defs>
<font id="sukhumvit_setmedium" horiz-adv-x="0" >
<font-face units-per-em="2048" ascent="1638" descent="-410" />
<missing-glyph horiz-adv-x="549" />
<glyph unicode="&#xe2f;&#xe2f;" horiz-adv-x="1634" d="M88 1151v80h185v-81q0 -143 53.5 -215.5t172.5 -72.5q63 0 127.5 30t115.5 77t83.5 107.5t32.5 121.5v33h180v-367q49 21 93.5 58t79.5 83t55 95.5t20 97.5v33h181v-1231h-189v919q-32 -66 -96 -117t-144 -85v-717h-189v919q-22 -46 -63 -85t-92.5 -66t-112 -41.5 t-124.5 -14.5q-101 0 -171 33t-114.5 91.5t-64 138.5t-19.5 176z" />
<glyph unicode="&#xe4f;&#x22;" horiz-adv-x="1199" d="M132 528q0 97 36 182t100 149t150 101t182 37t182 -37t150.5 -101t100 -149t35.5 -182t-35.5 -183t-100 -149.5t-150.5 -101t-182 -37.5t-182 37.5t-150 101t-100 149t-36 183.5zM204 528q0 -83 31 -154.5t84.5 -126t126.5 -85t154 -30.5q82 0 154 30.5t126 85t85.5 126 t31.5 154.5q0 82 -31.5 153.5t-85.5 126t-126 85t-154 30.5q-81 0 -154 -30.5t-126.5 -85t-84.5 -126.5t-31 -153zM328 525q0 56 21.5 107.5t58.5 88t86 57t104 20.5q57 0 106 -20.5t86.5 -58t58.5 -87t21 -104.5q0 -57 -22 -107t-58.5 -86t-85.5 -57t-104 -21 q-57 0 -106 21t-86.5 57t-58.5 85.5t-21 104.5zM387 1509h148l-23 -447h-103zM443 525q0 -63 46 -109t111 -46q63 0 108 45t45 113q0 64 -45 109t-110 45q-63 0 -109 -46.5t-46 -110.5zM667 1509h147l-23 -447h-103z" />
<glyph unicode="&#xe24;&#xe32;" horiz-adv-x="2091" d="M105 884q18 71 67.5 138t123.5 118t167 82t198 31q132 0 228 -37t160 -108q75 57 173.5 101t231.5 44q114 0 201.5 -35t148.5 -99t92.5 -150.5t31.5 -192.5v-1216h-189v1216q0 158 -79 236.5t-218 78.5q-102 0 -179 -34.5t-129 -87.5q34 -85 33 -193v-1216h-189v1216 q0 158 -82 236.5t-235 78.5q-125 0 -223 -54.5t-132 -141.5l166 -154q-59 -31 -87.5 -76t-28.5 -115v-334q0 -27 10 -42.5t41 -15.5h118v-158h-169q-90 0 -139.5 56t-49.5 142v324q0 64 31 121.5t88 86.5z" />
<glyph unicode="&#xe26;&#xe32;" horiz-adv-x="2102" d="M66 0v158h96q30 0 40 15.5t10 42.5v291q0 64 30.5 121.5t87.5 86.5l-203 169q18 71 67.5 138t122 118t166.5 82t199 31q129 0 223.5 -37t158.5 -104q75 57 173 99t227 42q114 0 202 -35t148.5 -99t92.5 -150.5t32 -192.5v-1216h-189v1216q0 158 -79 236.5t-217 78.5 q-99 0 -176.5 -33.5t-127.5 -83.5q36 -86 36 -198v-1216h-189v1216q0 158 -82 236.5t-233 78.5q-126 0 -222.5 -54.5t-131.5 -141.5l189 -169q-60 -32 -88.5 -77t-28.5 -114v-337q0 -86 -49 -143t-139 -55h-146z" />
<glyph unicode="fi" horiz-adv-x="1201" d="M40 912v150h161v35q0 186 99.5 296.5t301.5 110.5q84 0 154 -18.5t117 -43.5l-42 -134q-44 25 -100.5 36t-119.5 11q-126 0 -177.5 -69.5t-51.5 -190.5v-33h650v-1062h-186v912h-464v-912h-181v912h-161z" />
<glyph unicode="fl" horiz-adv-x="1267" d="M40 912v150h161v35q0 86 31.5 160.5t85 129.5t127.5 86t157 31q111 0 185.5 -36.5t124.5 -85.5l22 99h163v-1481h-185v1250q-44 43 -111 74t-146 31q-126 0 -199.5 -69.5t-73.5 -190.5v-33h306v-150h-306v-912h-181v912h-161z" />
<glyph unicode=" "  horiz-adv-x="549" />
<glyph unicode="&#x09;" horiz-adv-x="549" />
<glyph unicode="&#xa0;" horiz-adv-x="549" />
<glyph unicode="!" horiz-adv-x="557" d="M145 109q0 55 35.5 93.5t98.5 38.5t98.5 -38t35.5 -94q0 -54 -35.5 -92.5t-98.5 -38.5t-98.5 38.5t-35.5 92.5zM182 1143v338h194v-338l-24 -730h-145z" />
<glyph unicode="&#x22;" horiz-adv-x="741" d="M124 1512h170l-26 -518h-119zM448 1512h172l-26 -518h-120z" />
<glyph unicode="#" horiz-adv-x="1256" d="M61 440v131h231l62 287h-203v132h231l95 439h154l-94 -439h303l94 439h155l-95 -439h202v-132h-231l-62 -287h203v-131h-231l-94 -440h-154l94 440h-303l-95 -440h-153l94 440h-203zM445 569h306l63 291h-309z" />
<glyph unicode="$" horiz-adv-x="1256" d="M163 59l46 153q59 -30 147.5 -50t203.5 -20v515q-65 21 -135.5 50t-128.5 75t-95.5 114.5t-37.5 169.5q0 151 94.5 255t302.5 126v202h124v-197q94 -5 174.5 -25t148.5 -53l-44 -151q-60 24 -131 41.5t-148 21.5v-488q70 -25 142 -56t130 -79t94.5 -117t36.5 -168 q0 -178 -110.5 -273t-292.5 -118v-207h-124v198q-142 0 -234.5 23.5t-162.5 57.5zM330 1071q0 -49 17.5 -84t49 -61t73.5 -46t90 -38v438q-119 -16 -174.5 -71t-55.5 -138zM684 154q103 17 168 73t65 155q0 48 -19 85t-49.5 64.5t-73.5 48t-91 38.5v-464z" />
<glyph unicode="%" horiz-adv-x="1705" d="M92 1064q0 79 20 149t60 123t98 84.5t135 31.5q75 0 133 -31.5t97.5 -84.5t60.5 -123t21 -149q0 -80 -21 -150t-60.5 -123t-98 -83.5t-132.5 -30.5q-77 0 -135 30.5t-98 83.5t-60 123t-20 150zM241 1064q0 -50 9 -98.5t29 -86t51 -59.5t75 -22q43 0 74 23t51 59.5 t28.5 83.5t8.5 98q0 50 -8.5 98t-28.5 85.5t-51 61t-74 23.5q-44 0 -75 -23.5t-51 -61t-29 -85.5t-9 -96zM373 0l806 1452h153l-804 -1452h-155zM990 365q0 80 19.5 150t59 123t98 83t135.5 30q75 0 133 -30t97 -83t60 -123t21 -150q0 -79 -21 -149.5t-60 -123t-97 -83.5 t-133 -31q-78 0 -136 31t-97.5 83.5t-59 123t-19.5 149.5zM1139 365q0 -51 8.5 -99t28.5 -86t50.5 -59.5t75.5 -21.5q43 0 74 23t51 59.5t28.5 84t8.5 97.5t-8.5 98.5t-28.5 86t-51 60.5t-74 23q-45 0 -75.5 -23t-50.5 -60.5t-28.5 -86t-8.5 -96.5z" />
<glyph unicode="&#x26;" horiz-adv-x="1392" d="M141 405q0 75 23 137t62.5 112.5t91.5 93.5t106 80l-17 23q-68 82 -109 156.5t-41 159.5q0 155 93 246t270 91q95 0 162 -25t109.5 -69.5t62.5 -104t20 -126.5q0 -66 -26 -120t-71.5 -100.5t-101.5 -86t-116 -79.5l370 -441q77 128 77 301v117h184v-117 q0 -132 -37 -244.5t-105 -196.5l175 -212h-207l-82 99q-82 -57 -181.5 -89t-213.5 -32q-129 0 -223.5 33t-155 92t-90 135t-29.5 167zM338 411q0 -123 79.5 -190t226.5 -67q167 0 275 81l-389 466q-82 -59 -137 -128t-55 -162zM436 1179q0 -62 26 -122t83 -125l14 -17 q47 28 90.5 59t75.5 62.5t50 68t18 78.5q0 75 -40.5 120.5t-134.5 45.5q-84 0 -133 -42.5t-49 -127.5z" />
<glyph unicode="'" horiz-adv-x="417" d="M124 1512h170l-26 -518h-119z" />
<glyph unicode="(" horiz-adv-x="656" d="M154 622q0 181 35 325.5t94 258.5t139 194.5t170 134.5l44 -81q-80 -53 -138 -139t-97.5 -195t-59.5 -236t-20 -262q0 -136 20 -262.5t59.5 -235.5t97.5 -194.5t138 -138.5l-44 -81q-90 52 -170 133.5t-139 194.5t-94 259t-35 325z" />
<glyph unicode=")" horiz-adv-x="656" d="M22 -209q79 52 137.5 138t97.5 195t59 235.5t20 262.5q0 135 -20 262t-59 236t-97.5 195t-137.5 139l44 81q90 -52 169 -133.5t138 -195.5t95 -258.5t36 -325.5q0 -179 -36 -325t-95 -259t-138 -194.5t-169 -133.5z" />
<glyph unicode="*" horiz-adv-x="1116" d="M132 808l306 206v18l-306 201l124 120l239 -237l15 5l-42 360h181l-40 -360l16 -5l239 237l121 -120l-306 -201v-18l306 -206l-121 -117l-239 236l-16 -2l40 -358h-181l42 358l-15 2l-239 -236z" />
<glyph unicode="+" horiz-adv-x="1256" d="M163 550v149h382v392h167v-392h383v-149h-383v-392h-167v392h-382z" />
<glyph unicode="," horiz-adv-x="531" d="M114 -275l66 508h216l-167 -508h-115z" />
<glyph unicode="-" horiz-adv-x="711" d="M66 517v150h580v-150h-580z" />
<glyph unicode="." horiz-adv-x="531" d="M132 109q0 55 34.5 93.5t99.5 38.5q64 0 99 -38t35 -94q0 -54 -35 -92.5t-99 -38.5q-63 0 -98.5 38.5t-35.5 92.5z" />
<glyph unicode="/" horiz-adv-x="814" d="M22 -88l624 1569h147l-623 -1569h-148z" />
<glyph unicode="0" horiz-adv-x="1256" d="M105 715q0 350 137.5 543.5t386.5 193.5q248 0 385 -194t137 -543q0 -350 -137 -543.5t-385 -193.5t-386 193.5t-138 543.5zM294 715q0 -294 86 -436t249 -142t248.5 141.5t85.5 436.5q0 294 -86 436t-248 142q-163 0 -249 -142t-86 -436z" />
<glyph unicode="1" horiz-adv-x="1256" d="M212 0v172h348v1081l-303 -97v155l335 118h158v-1257h337v-172h-875z" />
<glyph unicode="2" horiz-adv-x="1256" d="M137 0v142l356 362q90 92 159 165.5t115.5 138.5t70.5 127t24 129q0 109 -75.5 162.5t-201.5 53.5q-92 0 -181.5 -23.5t-159.5 -56.5l-48 159q70 36 171 64.5t220 28.5q239 0 351.5 -106t112.5 -282q0 -90 -34.5 -174t-91.5 -167.5t-135 -164.5t-163 -162l-231 -220h703 v-176h-962z" />
<glyph unicode="3" horiz-adv-x="1256" d="M137 66l47 154q64 -31 158 -53t205 -22q170 0 251 71.5t81 188.5q0 127 -83.5 188.5t-224.5 61.5h-208v159h208q117 0 191.5 64.5t74.5 189.5q0 101 -73 158t-247 57q-104 0 -185.5 -19.5t-144.5 -50.5l-48 155q70 35 171 59.5t218 24.5q132 0 225 -30.5t153.5 -82 t88 -120.5t27.5 -148q0 -137 -60 -211.5t-153 -116.5q113 -31 184 -116t71 -224q0 -194 -133 -309.5t-381 -115.5q-132 0 -236.5 25.5t-176.5 62.5z" />
<glyph unicode="4" horiz-adv-x="1256" d="M101 273v130l732 1026h157v-999h166v-157h-166v-273h-184v273h-705zM314 430h495v700z" />
<glyph unicode="5" horiz-adv-x="1256" d="M132 66l48 154q64 -31 155.5 -53t211.5 -22q90 0 157 23t112.5 63t67.5 93.5t22 115.5q0 139 -80.5 215.5t-269.5 76.5h-360v130l54 567h757v-176h-594l-33 -350h179q264 0 400 -123t136 -337q0 -217 -144.5 -341t-400.5 -124q-137 0 -241.5 25.5t-176.5 62.5z" />
<glyph unicode="6" horiz-adv-x="1256" d="M132 699q0 183 42 322.5t117.5 235.5t181.5 145.5t235 49.5q104 0 180.5 -23.5t145.5 -60.5l-46 -145q-122 70 -276 70q-177 0 -282 -132t-109 -378q25 26 62 55.5t86.5 54t111 40t136.5 15.5q92 0 171 -32t137.5 -92.5t90.5 -147.5t32 -197q0 -106 -34 -198t-96.5 -159 t-152 -105.5t-198.5 -38.5q-254 0 -394.5 181t-140.5 540zM323 636q0 -119 27.5 -211.5t73.5 -158t109 -97.5t134 -32q132 0 212 91t80 256q0 61 -13.5 116t-44.5 96.5t-82 66t-128 24.5q-122 0 -215.5 -45.5t-152.5 -105.5z" />
<glyph unicode="7" horiz-adv-x="1256" d="M158 1257v172h954v-126l-613 -1303h-197l593 1257h-737z" />
<glyph unicode="8" horiz-adv-x="1256" d="M127 387q0 70 22.5 131t58.5 108.5t84 76.5t104 40q-97 31 -161.5 113.5t-64.5 211.5q0 176 119.5 280t339.5 104t340 -104t120 -280q0 -129 -65 -211.5t-162 -113.5q55 -11 103.5 -40t85 -76.5t58 -108.5t21.5 -131q0 -189 -133 -299t-368 -110t-368.5 110t-133.5 299z M313 391q0 -118 83.5 -188.5t232.5 -70.5t233 70.5t84 188.5q0 132 -76.5 198t-240.5 66q-165 0 -240.5 -66.5t-75.5 -197.5zM354 1059q0 -123 72.5 -186.5t202.5 -63.5t202 63.5t72 186.5q0 117 -73 177.5t-201 60.5q-127 0 -201 -60.5t-74 -177.5z" />
<glyph unicode="9" horiz-adv-x="1256" d="M109 950q0 105 35 197.5t97.5 159.5t151.5 106t199 39q253 0 393.5 -181.5t140.5 -540.5q0 -374 -150.5 -563t-443.5 -189q-104 0 -189.5 22t-155.5 57l46 144q63 -33 141.5 -48.5t153.5 -15.5q212 0 308 133t100 376q-25 -27 -62 -56.5t-86.5 -53.5t-111 -39t-134.5 -15 q-94 0 -173 31.5t-137 92.5t-90.5 147.5t-32.5 196.5zM299 946q0 -62 13 -117t44 -96.5t82 -66t129 -24.5q121 0 214.5 45t152.5 106q0 119 -27.5 211.5t-73.5 157.5t-109 98t-132 33q-132 0 -212.5 -91.5t-80.5 -255.5z" />
<glyph unicode=":" horiz-adv-x="574" d="M154 109q0 55 35 93.5t99 38.5t99 -38t35 -94q0 -54 -35 -92.5t-99 -38.5t-99 38.5t-35 92.5zM154 919q0 55 35 93.5t99 38.5t99 -38.5t35 -93.5t-35 -93.5t-99 -38.5t-99 38.5t-35 93.5z" />
<glyph unicode=";" horiz-adv-x="574" d="M125 -275l66 508h216l-168 -508h-114zM154 919q0 55 35 93.5t99 38.5t99 -38.5t35 -93.5t-35 -93.5t-99 -38.5t-99 38.5t-35 93.5z" />
<glyph unicode="&#x3c;" horiz-adv-x="1256" d="M145 562v124l937 508v-177l-750 -392l750 -394v-176z" />
<glyph unicode="=" horiz-adv-x="1256" d="M184 352v150h889v-150h-889zM184 747v151h889v-151h-889z" />
<glyph unicode="&#x3e;" horiz-adv-x="1256" d="M176 55v176l749 394l-749 392v177l936 -508v-124z" />
<glyph unicode="?" horiz-adv-x="1084" d="M105 1412q71 35 173 63.5t221 28.5q233 0 344.5 -100.5t111.5 -264.5q0 -85 -28.5 -152.5t-73 -122.5t-93.5 -102t-93.5 -92t-73.5 -92.5t-29 -105.5q0 -73 21 -120h-153q-14 25 -21.5 59t-7.5 68q0 71 26 126.5t67 104.5t88 92.5t87.5 91t67.5 102.5t27 125 q0 42 -16 80.5t-48.5 67t-83 46t-121.5 17.5q-92 0 -182.5 -23t-160.5 -56zM373 109q0 55 36 93.5t98 38.5q64 0 99.5 -38t35.5 -94q0 -54 -35.5 -92.5t-99.5 -38.5q-62 0 -98 38.5t-36 92.5z" />
<glyph unicode="@" horiz-adv-x="1802" d="M132 719q0 156 53.5 297.5t156.5 251t249.5 173t333.5 63.5q172 0 310.5 -54t235.5 -149.5t148 -228.5t51 -291q0 -130 -24 -223.5t-64 -155.5t-95.5 -90.5t-114.5 -28.5q-84 0 -137.5 58.5t-58.5 142.5q-17 -33 -49 -68.5t-76 -63t-96.5 -46t-110.5 -18.5 q-158 0 -249 116.5t-91 319.5q0 87 20.5 169.5t71 145t134.5 101.5t209 39q94 0 180 -22.5t161 -61.5v-528q0 -36 5 -66.5t17.5 -54.5t33.5 -38t51 -14q29 0 59.5 19t56 65.5t42 125t16.5 196.5q0 111 -37.5 220t-114.5 193t-197 137t-285 53q-162 0 -292 -54t-218.5 -147.5 t-136 -217.5t-47.5 -265q0 -160 51.5 -280t140.5 -200.5t207.5 -119.5t252.5 -39q91 0 180 22.5t160 67.5l46 -90q-71 -47 -168.5 -74.5t-220.5 -27.5q-158 0 -294.5 46.5t-238 139t-159.5 230.5t-58 325zM651 730q0 -81 17.5 -139.5t48 -96t70 -55t86.5 -17.5 q107 0 177.5 89t70.5 236v260q-31 17 -79 27t-106 10q-151 0 -218 -82.5t-67 -231.5z" />
<glyph unicode="A" horiz-adv-x="1375" d="M44 0l548 1481h193l547 -1481h-195l-145 398h-610l-143 -398h-195zM446 569h484l-149 407l-90 290h-5l-90 -290z" />
<glyph unicode="B" horiz-adv-x="1352" d="M176 0v1481h550q117 0 204 -29.5t147 -81.5t89.5 -126t29.5 -160q0 -63 -22.5 -114t-54.5 -89.5t-71 -64t-74 -38.5q50 -8 101 -34.5t91 -69.5t65.5 -103.5t25.5 -140.5q0 -94 -31.5 -172.5t-97.5 -136t-166 -89.5t-234 -32h-552zM361 170h365q165 0 256 68t91 192 q0 72 -25.5 119t-71.5 76.5t-109.5 43t-142.5 13.5h-363v-512zM361 849h367q59 0 110.5 15t90 46t60.5 77.5t22 104.5q0 108 -76.5 164.5t-208.5 56.5h-365v-464z" />
<glyph unicode="C" horiz-adv-x="1256" d="M97 741q0 167 46 307.5t135 241.5t221 157.5t301 56.5q117 0 200.5 -17.5t160.5 -52.5l-49 -159q-122 57 -309 57q-242 0 -379.5 -154t-137.5 -437q0 -279 134 -435.5t386 -156.5q83 0 165.5 16.5t154.5 52.5l48 -161q-82 -40 -173 -59.5t-201 -19.5q-182 0 -314 55 t-219 155t-128.5 240.5t-41.5 312.5z" />
<glyph unicode="D" horiz-adv-x="1437" d="M176 0v1481h430q363 0 547 -186.5t184 -551.5t-184 -554t-547 -189h-430zM365 176h241q262 0 402 131.5t140 435.5t-140 433.5t-402 129.5h-241v-1130z" />
<glyph unicode="E" horiz-adv-x="1199" d="M176 0v1481h906v-173h-717v-455h673v-174h-673v-505h730v-174h-919z" />
<glyph unicode="F" horiz-adv-x="1156" d="M176 0v1481h888v-173h-699v-477h655v-174h-655v-657h-189z" />
<glyph unicode="G" horiz-adv-x="1414" d="M97 745q0 178 48 319t142.5 239t231 149.5t312.5 51.5q117 0 203.5 -20t163.5 -55l-48 -158q-63 31 -147 46t-170 15q-253 0 -400 -146t-147 -441q0 -134 33 -244t90 -188t137.5 -121t177.5 -43q155 0 254.5 85t99.5 273v152h-297v172h482v-831h-155l-30 174 q-44 -82 -132 -139t-231 -57q-145 0 -261 54t-195 155t-120.5 241.5t-41.5 316.5z" />
<glyph unicode="H" horiz-adv-x="1449" d="M176 0v1481h189v-628h722v628h188v-1481h-188v677h-722v-677h-189z" />
<glyph unicode="I" horiz-adv-x="549" d="M180 0v1481h190v-1481h-190z" />
<glyph unicode="J" horiz-adv-x="838" d="M22 40l49 160q33 -20 87 -33t123 -13q89 0 143.5 62.5t54.5 211.5v1053h190v-1053q0 -230 -95 -337.5t-291 -107.5q-87 0 -152 16t-109 41z" />
<glyph unicode="K" horiz-adv-x="1326" d="M176 0v1481h189v-1481h-189zM464 738v90l593 653h225l-631 -692l655 -789h-233z" />
<glyph unicode="L" horiz-adv-x="1128" d="M176 0v1481h189v-1305h699v-176h-888z" />
<glyph unicode="M" horiz-adv-x="1740" d="M176 0v1481h229l348 -788q45 -95 71.5 -164t43.5 -114h5q17 45 43.5 114t71.5 164l349 788h229v-1481h-189v902q0 46 2.5 129t14.5 182h-5q-25 -82 -49.5 -143t-51.5 -120l-316 -711h-202l-317 711q-26 59 -51.5 120.5t-49.5 142.5h-4q10 -99 13.5 -182t3.5 -129v-902 h-189z" />
<glyph unicode="N" horiz-adv-x="1463" d="M176 0v1481h202l589 -956q44 -71 83 -144t62 -124h4q-10 78 -13.5 155.5t-3.5 170.5v898h189v-1481h-201l-590 957q-44 70 -82.5 143.5t-62.5 124.5h-4q10 -77 13.5 -155t3.5 -170v-900h-189z" />
<glyph unicode="O" horiz-adv-x="1520" d="M97 741q0 162 38.5 302t119.5 242t206.5 160.5t299.5 58.5t299.5 -58.5t206 -160.5t119.5 -242t39 -302q0 -163 -39 -302.5t-119.5 -242t-206 -160.5t-299.5 -58t-299.5 58t-206.5 160.5t-119.5 242.5t-38.5 302zM286 741q0 -290 118 -447t357 -157t357 157t118 447 t-118 447t-357 157t-357 -156.5t-118 -447.5z" />
<glyph unicode="P" horiz-adv-x="1243" d="M176 0v1481h485q117 0 208 -35.5t154.5 -99t95.5 -147t32 -179.5q0 -98 -34.5 -184t-99.5 -151t-158 -101.5t-210 -36.5h-284v-547h-189zM365 724h284q146 0 230 79t84 217q0 131 -77 208.5t-225 77.5h-296v-582z" />
<glyph unicode="Q" horiz-adv-x="1520" d="M97 741q0 162 38.5 302t119.5 242t206.5 160.5t299.5 58.5t299.5 -58.5t206 -160.5t119.5 -242t39 -302q0 -147 -32 -276t-98 -227.5t-167.5 -164.5t-242.5 -86q-17 -44 -51 -91t-84 -72h429v-162h-741v162h28q98 0 159 46t86 111q-161 9 -276.5 68.5t-190 161.5 t-111 237t-36.5 293zM286 741q0 -290 118 -447t357 -157t357 157t118 447t-118 447t-357 157t-357 -156.5t-118 -447.5z" />
<glyph unicode="R" horiz-adv-x="1296" d="M176 0v1481h529q118 0 209 -34.5t153.5 -94t95.5 -141t33 -173.5q0 -78 -23 -146.5t-67 -126t-107 -99t-141 -64.5l350 -602h-206l-339 583h-298v-583h-189zM365 759h328q147 0 230.5 75.5t83.5 203.5q0 124 -77 196t-225 72h-340v-547z" />
<glyph unicode="S" horiz-adv-x="1164" d="M109 61l49 157q61 -31 151.5 -51t202.5 -20q80 0 146 14.5t113 44t74.5 77t27.5 113.5t-28.5 110t-76 75.5t-111 54.5t-132.5 46q-65 21 -138.5 51t-135.5 77.5t-102 118.5t-40 177q0 85 29 158t90.5 127t157.5 83.5t227 29.5q109 0 198 -21t165 -58l-49 -156 q-63 31 -143.5 48.5t-170.5 17.5q-172 0 -246.5 -63.5t-74.5 -161.5q0 -61 27 -103t72 -73t104 -52.5t125 -44.5q75 -27 153 -59.5t140.5 -83t102 -124t39.5 -179.5q0 -104 -39.5 -182.5t-111 -130t-171 -76t-221.5 -24.5q-141 0 -235.5 23.5t-167.5 59.5z" />
<glyph unicode="T" horiz-adv-x="1128" d="M22 1306v175h1086v-175l-449 2v-1308h-189v1308z" />
<glyph unicode="U" horiz-adv-x="1467" d="M172 594v887h189v-889q0 -221 96.5 -329.5t276.5 -108.5q181 0 277.5 108.5t96.5 329.5v889h189v-887q0 -315 -151.5 -465.5t-411.5 -150.5t-411 150.5t-151 465.5z" />
<glyph unicode="V" horiz-adv-x="1349" d="M40 1481h195l321 -896l118 -381h3l116 381l321 896h197l-540 -1481h-192z" />
<glyph unicode="W" horiz-adv-x="1936" d="M66 1481h191l188 -824q28 -123 42.5 -230.5t24.5 -212.5h5q17 109 39.5 208.5t58.5 219.5l260 839h187l259 -839q38 -120 60 -219.5t39 -208.5h5q10 105 24.5 213t43.5 230l187 824h192l-346 -1481h-186l-296 965q-21 71 -42.5 157t-32.5 156h-4q-10 -68 -31.5 -155 t-43.5 -158l-294 -965h-185z" />
<glyph unicode="X" horiz-adv-x="1361" d="M61 0l514 771l-472 710h211l365 -575h5l365 575h212l-472 -710l513 -771h-211l-407 637h-5l-406 -637h-212z" />
<glyph unicode="Y" horiz-adv-x="1248" d="M35 1481h200l387 -688h5l387 688h199l-494 -850v-631h-189v631z" />
<glyph unicode="Z" horiz-adv-x="1203" d="M88 0v132l756 1176h-703v173h950v-132l-758 -1175h771v-174h-1016z" />
<glyph unicode="[" horiz-adv-x="623" d="M176 -259v1763h404v-141h-242v-1482h242v-140h-404z" />
<glyph unicode="\" horiz-adv-x="814" d="M22 1481h148l623 -1569h-147z" />
<glyph unicode="]" horiz-adv-x="623" d="M44 -119h242v1482h-242v141h404v-1763h-404v140z" />
<glyph unicode="^" horiz-adv-x="1146" d="M88 606l405 875h162l404 -875h-193l-291 680l-294 -680h-193z" />
<glyph unicode="_" horiz-adv-x="952" d="M0 -147h955v-149h-955v149z" />
<glyph unicode="`" horiz-adv-x="658" d="M-27 1410l102 138l325 -275l-58 -82z" />
<glyph unicode="a" horiz-adv-x="1107" d="M88 299q0 183 124 271.5t342 88.5h220v35q0 126 -67.5 183t-176.5 57q-94 0 -176.5 -19.5t-153.5 -52.5l-42 130q59 35 158 63.5t221 28.5q212 0 311.5 -107t99.5 -284v-693h-139l-35 180q-24 -39 -52 -76t-69.5 -64t-98.5 -44.5t-139 -17.5q-67 0 -126.5 20.5 t-104.5 61.5t-70.5 100.5t-25.5 138.5zM268 299q0 -81 51 -128t129 -47q74 0 132.5 27.5t102 72t67.5 100.5t24 114v84h-222q-139 0 -211.5 -58.5t-72.5 -164.5z" />
<glyph unicode="b" horiz-adv-x="1229" d="M167 0v1481h185v-578q19 30 55 62t82 58t103 43.5t123 17.5q108 0 186.5 -46t129.5 -122t75 -171.5t24 -194.5q0 -277 -121 -424.5t-318 -147.5q-57 0 -110 16t-98 44t-78.5 65.5t-52.5 76.5l-36 -180h-149zM352 521q0 -86 26.5 -155.5t69 -118.5t98.5 -75.5t115 -26.5 q57 0 110.5 21t92.5 69t62.5 125.5t23.5 189.5q0 182 -73.5 274.5t-197.5 92.5q-96 0 -183 -49.5t-144 -124.5v-222z" />
<glyph unicode="c" horiz-adv-x="1010" d="M92 532q0 118 31 218.5t95.5 174t162.5 116.5t232 43q180 0 310 -68l-41 -139q-122 57 -271 57q-86 0 -149.5 -30.5t-105.5 -84t-61.5 -127.5t-19.5 -160t19.5 -161t62.5 -128.5t108 -84.5t155 -31q68 0 137 14.5t133 45.5l42 -137q-71 -37 -149 -54.5t-181 -17.5 q-130 0 -225.5 43t-159 118t-94.5 175.5t-31 217.5z" />
<glyph unicode="d" horiz-adv-x="1229" d="M101 530q0 114 30.5 214t89 176.5t144.5 120t197 43.5q59 0 109 -15t89.5 -39.5t69.5 -55.5t49 -62v569h185v-1481h-149l-36 180q-19 -39 -52.5 -76.5t-78.5 -65.5t-97.5 -44t-108.5 -16q-97 0 -179 37t-140 107.5t-90 173t-32 234.5zM281 532q0 -104 24.5 -178.5 t65 -120.5t92 -67t106.5 -21q59 0 115.5 26.5t99 75.5t69 119t26.5 155v230q-53 77 -128.5 121.5t-156.5 44.5q-139 0 -226 -94.5t-87 -290.5z" />
<glyph unicode="e" horiz-adv-x="1102" d="M92 532q0 118 26.5 218.5t85 174t150 116.5t223.5 43q217 0 321 -122t104 -326q0 -57 -5 -101.5t-17 -86.5h-705q17 -155 103 -238t247 -83q68 0 142.5 13.5t138.5 43.5l42 -136q-137 -70 -336 -70h-6q-259 0 -386.5 149.5t-127.5 404.5zM271 585h560v51q0 145 -58 226 t-196 81q-80 0 -135 -27.5t-91.5 -75t-56 -113.5t-23.5 -142z" />
<glyph unicode="f" horiz-adv-x="740" d="M40 912v150h161v56q0 88 19 158.5t60 122t106 78.5t159 27q72 0 122 -14.5t96 -37.5l-42 -134q-44 23 -83.5 30t-83.5 7q-55 0 -88.5 -17t-51.5 -46t-25 -74.5t-7 -101.5v-54h306v-150h-306v-912h-181v912h-161z" />
<glyph unicode="g" horiz-adv-x="1227" d="M101 542q0 109 30.5 208t89 173t144.5 117.5t197 43.5q59 0 109 -17.5t89.5 -43.5t69.5 -58.5t49 -61.5l31 159h154v-972q0 -145 -36 -246t-102 -165t-157.5 -93t-199.5 -29q-117 0 -223.5 31.5t-166.5 71.5l45 147q64 -38 145.5 -61t173.5 -23q75 0 136.5 15.5t105 57 t69 113.5t25.5 183v109q-19 -39 -52.5 -76t-78.5 -64.5t-97.5 -44t-108.5 -16.5q-97 0 -179 37.5t-140 107t-90 169t-32 228.5zM281 543q0 -100 24.5 -172t65 -117t92 -66t106.5 -21q66 0 123.5 26.5t99 76t64.5 118.5t23 155v195q-44 78 -124 128.5t-161 50.5 q-139 0 -226 -93.5t-87 -280.5z" />
<glyph unicode="h" horiz-adv-x="1241" d="M167 0v1481h185v-569q19 28 55 57t82 55.5t104 43t124 16.5q172 0 268.5 -113t96.5 -310v-661h-180v661q0 120 -57.5 188t-160.5 68q-105 0 -190 -45.5t-142 -120.5v-751h-185z" />
<glyph unicode="i" horiz-adv-x="526" d="M141 1385q0 50 31.5 85.5t91.5 35.5q59 0 91 -35.5t32 -85.5t-32 -85.5t-91 -35.5t-91 35.5t-32 85.5zM172 0v1062h184v-1062h-184z" />
<glyph unicode="j" horiz-adv-x="526" d="M-124 -405l47 146q52 -22 112 -22q84 0 110.5 54.5t26.5 174.5v1114h184v-1112q0 -92 -14 -165t-50 -124.5t-97 -78.5t-155 -27q-50 0 -91 11.5t-73 28.5zM141 1385q0 50 31.5 85.5t91.5 35.5q59 0 91 -35.5t32 -85.5t-32 -85.5t-91 -35.5t-91 35.5t-32 85.5z" />
<glyph unicode="k" horiz-adv-x="1113" d="M167 0v1481h185v-1481h-185zM428 562v63l414 437h220l-444 -468l466 -594h-218q-121 156 -217 279q-43 53 -82 103t-70 90t-50 66z" />
<glyph unicode="l" horiz-adv-x="526" d="M172 0v1481h184v-1481h-184z" />
<glyph unicode="m" horiz-adv-x="1757" d="M165 0v1062h154l31 -159q20 30 48.5 62t67.5 58t91 43.5t118 17.5q106 0 174 -55t99 -150q50 84 139 144.5t203 60.5q158 0 233.5 -108t75.5 -280v-696h-181v696q0 102 -39.5 164t-128.5 62q-47 0 -89.5 -17t-77 -45.5t-62 -63.5t-47.5 -72v-724h-181v696q0 102 -39 164 t-125 62q-97 0 -168.5 -52t-110.5 -127v-743h-185z" />
<glyph unicode="n" horiz-adv-x="1239" d="M165 0v1062h154l31 -159q20 30 55 62t81 58t104.5 43.5t124.5 17.5q171 0 268 -113t97 -310v-661h-180v661q0 120 -57.5 188t-160.5 68q-105 0 -190 -48.5t-142 -125.5v-743h-185z" />
<glyph unicode="o" horiz-adv-x="1185" d="M92 532q0 118 29.5 218.5t91.5 174t156.5 116.5t224.5 43t224 -43t156 -116.5t91.5 -174.5t29.5 -218t-29.5 -217.5t-91.5 -175.5t-156 -118t-224 -43t-224.5 43t-156.5 118t-91.5 175.5t-29.5 217.5zM275 532q0 -86 19 -161t57 -128.5t98.5 -84.5t144.5 -31 q83 0 143.5 31t99 84.5t57 128.5t18.5 161t-18.5 160t-57 127.5t-99 84t-143.5 30.5q-84 0 -144.5 -30.5t-98.5 -84t-57 -127.5t-19 -160z" />
<glyph unicode="p" horiz-adv-x="1227" d="M165 -420v1482h154l31 -159q20 30 55 62t81 58t103 43.5t123 17.5q108 0 187 -46t130 -122t75.5 -171.5t24.5 -194.5q0 -277 -122 -424.5t-319 -147.5q-57 0 -110 16t-97.5 44t-77.5 65.5t-53 76.5v-600h-185zM350 521q0 -86 26.5 -155.5t69 -118.5t98.5 -75.5t115 -26.5 q57 0 110.5 21t93 69t62.5 125.5t23 189.5q0 182 -74 274.5t-197 92.5q-97 0 -183.5 -49.5t-143.5 -124.5v-222z" />
<glyph unicode="q" horiz-adv-x="1227" d="M101 530q0 114 30.5 214t89 176.5t144.5 120t197 43.5q59 0 109 -16.5t89.5 -43t69.5 -58.5t49 -63l31 159h154v-1482h-185v600q-19 -39 -52.5 -76.5t-78.5 -65.5t-97.5 -44t-108.5 -16q-97 0 -179 37t-140 107.5t-90 173t-32 234.5zM281 532q0 -104 24.5 -178.5 t65 -120.5t92 -67t106.5 -21q59 0 115.5 26.5t99 75.5t69 119t26.5 155v217q-51 85 -123 132t-162 47q-139 0 -226 -94.5t-87 -290.5z" />
<glyph unicode="r" horiz-adv-x="816" d="M165 0v1062h149l36 -180q20 35 47 70.5t63.5 63.5t81.5 47t102 21q12 1 23 1q25 0 42 -4q26 -6 42 -13q22 -9 36 -19l-55 -185q-44 44 -121 44q-181 0 -261 -178v-730h-185z" />
<glyph unicode="s" horiz-adv-x="950" d="M101 47l41 137q59 -28 134.5 -44t155.5 -16q130 0 186 47t56 110q0 42 -20 71.5t-53.5 52.5t-77.5 40t-95 32q-73 21 -131.5 48t-102 64.5t-66.5 89t-23 121.5q0 134 103 209t285 75q90 0 174 -16.5t151 -51.5l-42 -139q-59 29 -125 45.5t-144 16.5q-118 0 -171 -39.5 t-53 -99.5q0 -71 55.5 -106t149.5 -65q91 -29 159 -60.5t113.5 -72.5t68 -93.5t22.5 -123.5q0 -137 -98 -219t-310 -82q-106 0 -193 16t-149 53z" />
<glyph unicode="t" horiz-adv-x="777" d="M40 912v150h164l44 303h134v-303h326v-150h-326v-616q0 -79 24 -124t106 -45q48 0 91 11t76 29l42 -134q-46 -28 -101.5 -41.5t-137.5 -13.5q-143 0 -212 76t-69 240v618h-161z" />
<glyph unicode="u" horiz-adv-x="1225" d="M162 400v662h178v-662q0 -123 54 -191t143 -68q119 0 201 61.5t139 143.5v716h185v-1062h-150l-35 180q-19 -33 -52.5 -69t-79.5 -66t-106 -48.5t-135 -18.5q-77 0 -139.5 23.5t-107.5 74.5t-70 131.5t-25 192.5z" />
<glyph unicode="v" horiz-adv-x="1029" d="M35 1062h191l185 -519l101 -354h5l101 354l188 519h191l-386 -1062h-191z" />
<glyph unicode="w" horiz-adv-x="1501" d="M57 1062h182l124 -537q15 -63 26 -158.5t20 -194.5h4q17 94 33 165.5t38 144.5l179 580h177l180 -580q21 -73 37 -144.5t34 -165.5h4q9 99 20 194.5t26 158.5l123 537h183l-253 -1062h-183l-171 539q-32 92 -50.5 176.5t-36.5 184.5h-3q-18 -99 -37 -184t-50 -177 l-170 -539h-182z" />
<glyph unicode="x" horiz-adv-x="1069" d="M52 0l384 552l-352 510h193l255 -387h5l256 387h195l-354 -510l383 -552h-192l-288 428h-5l-286 -428h-194z" />
<glyph unicode="y" horiz-adv-x="1218" d="M162 422v640h178v-640q0 -124 53 -191.5t142 -67.5q119 0 200 61.5t135 142.5v695h185v-972q0 -270 -131 -401.5t-364 -131.5q-100 0 -199 29t-161 68l46 148q63 -37 139.5 -58t161.5 -21q78 0 138 18t100.5 60.5t62.5 114t22 176.5v109q-19 -33 -52 -68.5t-78.5 -65 t-104 -48.5t-133.5 -19q-78 0 -140.5 23.5t-106 74.5t-68.5 132t-25 192z" />
<glyph unicode="z" horiz-adv-x="992" d="M92 0v105l561 807h-519v150h743v-105l-561 -808h582v-149h-806z" />
<glyph unicode="{" horiz-adv-x="698" d="M114 562v120q101 0 139.5 44t38.5 127q0 36 -5.5 81.5t-10.5 94.5t-11 96t-6 86q0 149 85.5 221t244.5 72h45v-113h-40q-95 0 -133.5 -52.5t-38.5 -152.5q0 -76 15.5 -160.5t15.5 -163.5q0 -99 -37.5 -156t-121.5 -81v-5q84 -24 121.5 -81t37.5 -157q0 -79 -15.5 -163.5 t-15.5 -159.5q0 -101 38.5 -153.5t133.5 -52.5h40v-112h-45q-158 0 -244 71t-86 221q0 40 6 87t11 95.5t10.5 93.5t5.5 82q0 85 -38 128t-140 43z" />
<glyph unicode="|" horiz-adv-x="562" d="M198 -440v2141h167v-2141h-167z" />
<glyph unicode="}" horiz-adv-x="698" d="M66 -147h39q95 0 133.5 52.5t38.5 153.5q0 75 -15.5 160t-15.5 163q0 99 37.5 156.5t121.5 81.5v5q-84 25 -121.5 81.5t-37.5 155.5q0 79 15.5 163.5t15.5 160.5q0 100 -38.5 152.5t-133.5 52.5h-39v113h43q158 0 244.5 -71.5t86.5 -221.5q0 -40 -6 -86.5t-11 -95.5 t-10.5 -95t-5.5 -81q0 -83 38.5 -127t139.5 -44v-120q-101 0 -139.5 -44t-38.5 -127q0 -37 5.5 -82t10.5 -93.5t11 -95.5t6 -87q0 -149 -86 -220.5t-245 -71.5h-43v112z" />
<glyph unicode="~" horiz-adv-x="1212" d="M88 661q17 38 46 76.5t66.5 70.5t84.5 51.5t104 19.5q81 0 137.5 -27t103.5 -61t91.5 -62t101.5 -28q75 0 125 46t88 104l90 -94q-44 -90 -121.5 -155t-178.5 -65q-81 0 -138 28.5t-105 61t-92.5 61.5t-96.5 29q-83 0 -130.5 -46t-84.5 -107z" />
<glyph horiz-adv-x="1099" />
<glyph unicode="&#xa0;" />
<glyph unicode="&#xa1;" horiz-adv-x="557" d="M145 952q0 55 35.5 93.5t98.5 38.5t98.5 -38.5t35.5 -93.5q0 -54 -35.5 -93t-98.5 -39t-98.5 39t-35.5 93zM182 -82l25 731h145l24 -731v-338h-194v338z" />
<glyph unicode="&#xa2;" horiz-adv-x="1256" d="M214 532q0 107 28.5 203t86.5 168.5t144.5 118.5t203.5 58v202h123v-200q153 -7 266 -66l-42 -139q-50 25 -106 37.5t-118 17.5v-805q57 5 118.5 20.5t115.5 39.5l40 -137q-114 -59 -274 -69v-201h-123v203q-117 8 -203.5 54.5t-143.5 120t-86.5 169t-29.5 205.5z M396 532q0 -77 17 -144t53 -119.5t88 -87t123 -47.5v793q-140 -21 -210.5 -130t-70.5 -265z" />
<glyph unicode="&#xa3;" horiz-adv-x="1256" d="M145 0v189h73q48 19 91 51.5t73.5 71t48 78.5t17.5 78q0 51 -12 94.5t-29 86.5h-251v138h177q-33 61 -58 126t-25 144q0 91 36.5 163.5t99 124t146 79.5t179.5 28q114 0 188.5 -22.5t151.5 -61.5l-49 -160q-62 34 -125 53t-147 19q-77 0 -127.5 -22t-80 -58.5t-43 -81 t-13.5 -84.5q0 -71 23 -130.5t54 -116.5h341v-138h-271q15 -38 24 -76t9 -83q0 -99 -55.5 -175.5t-154.5 -125.5h712v-189h-1003z" />
<glyph unicode="&#xa4;" horiz-adv-x="1256" d="M180 1084l88 90l126 -125q101 80 235 80q65 0 123.5 -21t113.5 -59l124 123l84 -90l-117 -122q40 -57 58.5 -113t18.5 -126q0 -63 -20 -122.5t-57 -110.5l121 -123l-88 -97l-124 128q-57 -38 -113.5 -56.5t-121.5 -18.5q-71 0 -128 18.5t-109 56.5l-123 -128 q-20 25 -45 49.5t-44 47.5l122 123q-78 99 -78 233q0 68 20 125t58 114zM352 721q0 -57 22 -107t59 -87t87.5 -59t108.5 -22q55 0 106.5 22t90 59t61.5 87t23 107q0 60 -23 110.5t-61.5 88t-90 59t-106.5 21.5q-57 0 -108 -21.5t-88 -59t-59 -88t-22 -110.5z" />
<glyph unicode="&#xa5;" horiz-adv-x="1256" d="M105 1429h201l321 -636h4l321 636h199l-358 -666h271v-108h-328l-12 -24v-136h340v-108h-340v-387h-189v387h-342v108h342v136l-14 24h-328v108h271z" />
<glyph unicode="&#xa6;" horiz-adv-x="549" d="M198 -385v772h154v-772h-154zM198 711v770h154v-770h-154z" />
<glyph unicode="&#xa7;" horiz-adv-x="1256" d="M193 738q0 85 39 136t101 76q-50 44 -71 104t-21 122q0 145 114.5 236.5t313.5 91.5q90 0 174 -22t151 -55l-42 -139q-57 32 -124 51.5t-144 19.5q-137 0 -199.5 -53t-62.5 -130q0 -39 21 -68.5t55 -52.5t79 -40.5t94 -34.5q63 -21 135.5 -49t133 -67t101.5 -96t41 -139 t-38.5 -134t-102.5 -75q53 -53 75 -116t22 -124q0 -73 -35.5 -131t-99 -99.5t-153 -64t-198.5 -22.5q-92 0 -186.5 21.5t-161.5 56.5l42 139q59 -30 134 -50.5t157 -20.5q67 0 125.5 12t102 35.5t68.5 54.5t25 69q0 46 -21 78t-56.5 56t-80.5 41.5t-94 33.5 q-54 15 -125.5 39.5t-135.5 65.5t-108 100t-44 144zM382 761q0 -49 28 -84t70 -59t93.5 -41.5t97.5 -31.5q50 -15 86 -25t76 -32q15 11 29 29q11 14 19.5 37t8.5 52q0 80 -77 129.5t-207 87.5q-54 17 -90.5 27t-72.5 32q-18 -14 -32 -31q-11 -15 -20 -37.5t-9 -52.5z" />
<glyph unicode="&#xa8;" horiz-adv-x="658" d="M7 1343q0 44 28.5 77.5t83.5 33.5t83.5 -33.5t28.5 -77.5t-28.5 -77t-83.5 -33q-54 0 -83 33t-29 77zM428 1343q0 44 29 77.5t85 33.5q54 0 82.5 -33.5t28.5 -77.5t-28.5 -77t-82.5 -33q-56 0 -85 33t-29 77z" />
<glyph unicode="&#xa9;" horiz-adv-x="1516" d="M88 741q0 143 54 268t145 218.5t213 147.5t259 54q136 0 258 -54t213 -147.5t145 -218.5t54 -268t-54 -268t-145 -218t-213 -148t-258 -55q-137 0 -259 55t-213 148t-145 218t-54 268zM200 741q0 -123 43 -229.5t118 -187t176.5 -127t221.5 -46.5q119 0 221 46.5 t176.5 127t118 187t43.5 229.5q0 121 -43.5 229t-118 188t-177 126t-220.5 46q-120 0 -221.5 -46t-176.5 -126t-118 -188t-43 -229zM418 738q0 -83 22 -154.5t67 -124t113 -83t161 -30.5q72 0 127 12.5t106 37.5l-29 99q-92 -44 -192 -44q-65 0 -111 22t-75.5 60t-44.5 91 t-15 114q0 126 57 207t183 81q103 0 191 -41l31 99q-94 48 -222 48q-94 0 -163.5 -30.5t-115.5 -83.5t-68 -124t-22 -156z" />
<glyph unicode="&#xaa;" horiz-adv-x="763" d="M31 882q0 135 93.5 199.5t253.5 64.5h143v17q0 83 -45.5 123t-114.5 40q-64 0 -125.5 -15.5t-118.5 -44.5l-37 112q45 25 120 49.5t167 24.5q155 0 231 -79.5t76 -211.5v-502h-127l-19 100q-33 -44 -87 -79.5t-162 -35.5q-103 0 -175.5 61t-72.5 177zM189 882 q0 -54 32.5 -85t82.5 -31q48 0 88 18.5t69 49t44.5 70t15.5 78.5v54h-143q-92 0 -140.5 -40.5t-48.5 -113.5z" />
<glyph unicode="&#xab;" horiz-adv-x="1003" d="M88 532l283 395h150l-283 -395l283 -395h-150zM486 532l284 395h147l-283 -395l283 -395h-147z" />
<glyph unicode="&#xac;" horiz-adv-x="1101" d="M88 651v157h904v-544h-166v387h-738z" />
<glyph unicode="&#xad;" horiz-adv-x="658" d="M22 477v143h615v-143h-615z" />
<glyph unicode="&#xae;" horiz-adv-x="1164" d="M88 1009q0 103 37 193.5t101 157.5t155 105.5t202 38.5q110 0 201 -38.5t156 -105.5t101.5 -157.5t36.5 -193.5t-36.5 -193t-101.5 -157t-156 -106t-201 -39t-201.5 39t-155.5 106t-101 157t-37 193zM180 1009q0 -86 29.5 -160.5t83 -131t127 -89t163.5 -32.5 q91 0 164 32.5t125.5 89t82.5 131t30 160.5t-30 160.5t-82.5 131t-125.5 89t-164 32.5q-90 0 -163.5 -32.5t-127 -89t-83 -131t-29.5 -160.5zM407 726h92v213h90l128 -213h99l-132 222q57 17 92 63t35 103q0 72 -45 119t-151 47h-208v-554zM499 1022v174h114q57 0 81.5 -21 t24.5 -61q0 -92 -108 -92h-112z" />
<glyph unicode="&#xaf;" horiz-adv-x="658" d="M22 1261v126h615v-126h-615z" />
<glyph unicode="&#xb0;" horiz-adv-x="781" d="M88 1211q0 59 23 113t65 94t97 63t118 23q64 0 118.5 -23t97 -63t65 -93.5t22.5 -113.5t-22.5 -113.5t-65 -93t-97 -62.5t-118.5 -23q-62 0 -117.5 23t-97.5 62.5t-65 93t-23 113.5zM193 1211q0 -40 15.5 -76t42 -63.5t63 -42.5t77.5 -15q43 0 79.5 15t65 42.5t44.5 64 t16 75.5q0 82 -59.5 138t-145.5 56q-41 0 -77.5 -15.5t-63 -42t-42 -62t-15.5 -74.5z" />
<glyph unicode="&#xb1;" horiz-adv-x="1256" d="M154 0v127h933v-127h-933zM154 571v150h383v370h166v-370h384v-150h-384v-370h-166v370h-383z" />
<glyph unicode="&#xb2;" horiz-adv-x="680" d="M57 659v98l197 198q83 83 132.5 147.5t49.5 130.5q0 47 -33 71t-90 24q-38 0 -90.5 -14.5t-98.5 -38.5l-38 116q46 22 105 41.5t123 19.5q139 0 205 -60t66 -159q0 -50 -24 -98t-61.5 -94.5t-80.5 -89.5t-79 -78l-84 -86h350v-128h-549z" />
<glyph unicode="&#xb3;" horiz-adv-x="669" d="M57 705l40 115q42 -21 94.5 -35.5t104.5 -14.5q77 0 113.5 35t36.5 85q0 57 -36.5 84.5t-98.5 27.5h-131v119h131q50 0 81.5 27.5t31.5 87.5q0 42 -31.5 68t-113.5 26q-46 0 -92 -13.5t-90 -34.5l-40 114q48 24 107.5 40t121.5 16q151 0 217 -63t66 -153 q0 -64 -29.5 -104t-79.5 -61q65 -17 98.5 -66.5t33.5 -114.5q0 -112 -74.5 -176.5t-218.5 -64.5q-77 0 -136.5 16.5t-105.5 39.5z" />
<glyph unicode="&#xb4;" horiz-adv-x="658" d="M259 1273l326 275l101 -138l-370 -219z" />
<glyph unicode="&#xb5;" horiz-adv-x="1229" d="M165 -440v1502h181v-662q0 -123 54.5 -191t153.5 -68q109 0 190 61.5t138 143.5v716h184v-1062h-149l-35 180q-20 -33 -53.5 -69t-75 -66t-92 -48.5t-107.5 -18.5q-82 0 -131.5 19.5t-76.5 57.5v-495h-181z" />
<glyph unicode="&#xb6;" horiz-adv-x="986" d="M88 1092q0 94 31.5 166t85.5 121.5t124.5 75.5t149.5 26h443v-111h-87q-88 0 -116 -35.5t-28 -107.5v-1332h-169v817h-54q-71 0 -138.5 24.5t-121.5 72t-87 118.5t-33 165z" />
<glyph unicode="&#xb7;" horiz-adv-x="531" d="M132 604q0 55 34.5 93.5t99.5 38.5q64 0 99 -38.5t35 -93.5q0 -54 -35 -93t-99 -39q-63 0 -98.5 39t-35.5 93z" />
<glyph unicode="&#xb8;" horiz-adv-x="658" d="M109 -367l183 283h121l-102 -283h-202z" />
<glyph unicode="&#xb9;" horiz-adv-x="633" d="M75 659v126h182v518l-158 -50v119l191 67h113v-654h176v-126h-504z" />
<glyph unicode="&#xba;" horiz-adv-x="874" d="M66 1049q0 83 21.5 157t67.5 127.5t115.5 86t167.5 32.5q94 0 165 -32.5t117 -86t67.5 -127.5t21.5 -157q0 -86 -21.5 -159.5t-67.5 -127.5t-117 -86t-165 -32q-97 0 -167 32t-116 86t-67.5 127.5t-21.5 159.5zM224 1049q0 -119 50.5 -200t163.5 -81q112 0 163.5 81 t51.5 200t-51.5 198t-163.5 79q-111 0 -162.5 -79t-51.5 -198z" />
<glyph unicode="&#xbb;" horiz-adv-x="1003" d="M88 137l283 395l-283 395h147l284 -395l-284 -395h-147zM484 137l284 395l-284 395h150l283 -395l-283 -395h-150z" />
<glyph unicode="&#xbc;" horiz-adv-x="1705" d="M119 659v126h183v518l-160 -50v119l191 67h113v-654h176v-126h-503zM373 0l806 1452h153l-804 -1452h-155zM923 142v102l383 537h116v-510h88v-129h-88v-142h-139v142h-360zM1082 271h204v279z" />
<glyph unicode="&#xbd;" horiz-adv-x="1705" d="M119 659v126h183v518l-160 -50v119l191 67h113v-654h176v-126h-503zM373 0l806 1452h153l-804 -1452h-155zM1038 0v97l195 197q85 84 134 148.5t49 132.5q0 45 -33.5 69.5t-89.5 24.5q-38 0 -90.5 -15t-98.5 -39l-38 117q46 21 105.5 40t123.5 19q139 0 205 -58.5 t66 -157.5q0 -52 -24.5 -100t-62 -95t-80 -89.5t-78.5 -76.5l-85 -87h351v-127h-549z" />
<glyph unicode="&#xbe;" horiz-adv-x="1705" d="M101 705l40 115q41 -21 94 -35.5t105 -14.5q78 0 114 35t36 85q0 57 -36 84.5t-100 27.5h-130v119h130q51 0 82.5 27.5t31.5 87.5q0 42 -31.5 68t-113.5 26q-46 0 -92.5 -13.5t-89.5 -34.5l-40 114q48 24 107.5 40t121.5 16q151 0 217 -63t66 -153q0 -64 -29.5 -104 t-79.5 -61q65 -17 98.5 -66.5t33.5 -114.5q0 -112 -75 -176.5t-219 -64.5q-77 0 -136 16.5t-105 39.5zM373 0l806 1452h153l-804 -1452h-155zM923 142v102l383 537h116v-510h88v-129h-88v-142h-139v142h-360zM1082 271h204v279z" />
<glyph unicode="&#xbf;" horiz-adv-x="1084" d="M132 -77q0 86 28.5 152.5t72.5 122.5t93.5 103t93.5 92t72.5 92t28.5 104q0 71 -19 122h151q15 -25 23 -59t8 -69q0 -73 -26.5 -128t-67 -103t-88 -92t-88.5 -91t-67 -103t-26 -125q0 -42 15.5 -81t48.5 -67t83.5 -46t120.5 -18q93 0 183 23.5t160 56.5l48 -159 q-71 -36 -173 -64.5t-220 -28.5q-233 0 -344 101t-111 265zM445 952q0 55 34.5 93.5t99.5 38.5q63 0 98 -38.5t35 -93.5q0 -54 -35 -93t-98 -39q-64 0 -99 39t-35 93z" />
<glyph unicode="&#xc0;" horiz-adv-x="1375" d="M44 0l548 1481h193l547 -1481h-195l-145 398h-610l-143 -398h-195zM446 569h484l-149 407l-90 290h-5l-90 -290zM475 1840l102 138l325 -275l-58 -81z" />
<glyph unicode="&#xc1;" horiz-adv-x="1375" d="M44 0l548 1481h193l547 -1481h-195l-145 398h-610l-143 -398h-195zM446 569h484l-149 407l-90 290h-5l-90 -290zM475 1703l326 275l101 -138l-370 -218z" />
<glyph unicode="&#xc2;" horiz-adv-x="1375" d="M44 0l548 1481h193l547 -1481h-195l-145 398h-610l-143 -398h-195zM369 1628l255 311h128l255 -311h-183l-136 187l-137 -187h-182zM446 569h484l-149 407l-90 290h-5l-90 -290z" />
<glyph unicode="&#xc3;" horiz-adv-x="1375" d="M44 0l548 1481h193l547 -1481h-195l-145 398h-610l-143 -398h-195zM353 1660q0 232 196 232q47 0 84.5 -16.5t69 -37.5t58.5 -37t54 -16q45 0 59 28.5t14 72.5h133q0 -119 -49.5 -176t-141.5 -57q-48 0 -85 16t-68 37t-58.5 37.5t-58.5 16.5q-44 0 -59.5 -31.5 t-15.5 -68.5h-132zM446 569h484l-149 407l-90 290h-5l-90 -290z" />
<glyph unicode="&#xc4;" horiz-adv-x="1375" d="M44 0l548 1481h193l547 -1481h-195l-145 398h-610l-143 -398h-195zM365 1774q0 43 28.5 76.5t83.5 33.5t83.5 -33.5t28.5 -76.5q0 -45 -28.5 -78t-83.5 -33q-54 0 -83 33t-29 78zM446 569h484l-149 407l-90 290h-5l-90 -290zM787 1774q0 43 29 76.5t84 33.5 q54 0 82.5 -33.5t28.5 -76.5q0 -45 -28.5 -78t-82.5 -33q-55 0 -84 33t-29 78z" />
<glyph unicode="&#xc5;" horiz-adv-x="1375" d="M44 0l548 1481h193l547 -1481h-195l-145 398h-610l-143 -398h-195zM446 569h484l-149 407l-90 290h-5l-90 -290zM477 1824q0 87 61 149t150 62q88 0 150 -62t62 -149q0 -88 -62 -148t-150 -60q-89 0 -150 60t-61 148zM584 1826q0 -50 30 -79.5t74 -29.5t75 29.5t31 79.5 t-31 80t-75 30t-74 -30t-30 -80z" />
<glyph unicode="&#xc6;" horiz-adv-x="1790" d="M44 0l652 1481h978v-173h-733l137 -455h551v-174h-500l149 -505h408v-174h-552l-117 398h-608l-171 -398h-194zM486 569h483l-120 407l-68 290h-5l-113 -290z" />
<glyph unicode="&#xc7;" horiz-adv-x="1256" d="M97 741q0 167 46 307.5t135 241.5t221 157.5t301 56.5q117 0 200.5 -17.5t160.5 -52.5l-49 -159q-122 57 -309 57q-242 0 -379.5 -154t-137.5 -437q0 -279 134 -435.5t386 -156.5q83 0 165.5 16.5t154.5 52.5l48 -161q-82 -40 -173 -59.5t-201 -19.5q-182 0 -314 55 t-219 155t-128.5 240.5t-41.5 312.5zM521 -367l182 283h122l-103 -283h-201z" />
<glyph unicode="&#xc8;" horiz-adv-x="1199" d="M176 0v1481h906v-173h-717v-455h673v-174h-673v-505h730v-174h-919zM409 1840l102 138l325 -275l-58 -81z" />
<glyph unicode="&#xc9;" horiz-adv-x="1199" d="M176 0v1481h906v-173h-717v-455h673v-174h-673v-505h730v-174h-919zM452 1703l326 275l101 -138l-370 -218z" />
<glyph unicode="&#xca;" horiz-adv-x="1199" d="M176 0v1481h906v-173h-717v-455h673v-174h-673v-505h730v-174h-919zM313 1628l255 311h128l255 -311h-183l-136 187l-137 -187h-182z" />
<glyph unicode="&#xcb;" horiz-adv-x="1199" d="M176 0v1481h906v-173h-717v-455h673v-174h-673v-505h730v-174h-919zM309 1774q0 43 28.5 76.5t83.5 33.5t83.5 -33.5t28.5 -76.5q0 -45 -28.5 -78t-83.5 -33q-54 0 -83 33t-29 78zM731 1774q0 43 28.5 76.5t84.5 33.5q54 0 82.5 -33.5t28.5 -76.5q0 -45 -28.5 -78 t-82.5 -33q-56 0 -84.5 33t-28.5 78z" />
<glyph unicode="&#xcc;" horiz-adv-x="549" d="M62 1840l101 138l325 -275l-58 -81zM180 0v1481h190v-1481h-190z" />
<glyph unicode="&#xcd;" horiz-adv-x="549" d="M64 1703l326 275l100 -138l-369 -218zM180 0v1481h190v-1481h-190z" />
<glyph unicode="&#xce;" horiz-adv-x="549" d="M-42 1628l256 311h128l255 -311h-184l-136 187l-136 -187h-183zM180 0v1481h190v-1481h-190z" />
<glyph unicode="&#xcf;" horiz-adv-x="549" d="M-46 1774q0 43 28.5 76.5t83.5 33.5q56 0 84.5 -33.5t28.5 -76.5q0 -45 -28.5 -78t-84.5 -33q-54 0 -83 33t-29 78zM180 0v1481h190v-1481h-190zM376 1774q0 43 29 76.5t84 33.5q54 0 82.5 -33.5t28.5 -76.5q0 -45 -28.5 -78t-82.5 -33q-55 0 -84 33t-29 78z" />
<glyph unicode="&#xd0;" horiz-adv-x="1437" d="M25 659v150h151v672h430q363 0 547 -186.5t184 -551.5t-184 -554t-547 -189h-430v659h-151zM365 176h241q262 0 402 131.5t140 435.5t-140 433.5t-402 129.5h-241v-497h394v-150h-394v-483z" />
<glyph unicode="&#xd1;" horiz-adv-x="1463" d="M176 0v1481h202l589 -956q44 -71 83 -144t62 -124h4q-10 78 -13.5 155.5t-3.5 170.5v898h189v-1481h-201l-590 957q-44 70 -82.5 143.5t-62.5 124.5h-4q10 -77 13.5 -155t3.5 -170v-900h-189zM398 1660q0 232 196 232q46 0 83.5 -16.5t69.5 -37.5t59 -37t54 -16 q44 0 58.5 28.5t14.5 72.5h133q0 -119 -49.5 -176t-141.5 -57q-49 0 -86 16t-67.5 37t-58 37.5t-59.5 16.5q-44 0 -59 -31.5t-15 -68.5h-132z" />
<glyph unicode="&#xd2;" horiz-adv-x="1520" d="M97 741q0 162 38.5 302t119.5 242t206.5 160.5t299.5 58.5t299.5 -58.5t206 -160.5t119.5 -242t39 -302q0 -163 -39 -302.5t-119.5 -242t-206 -160.5t-299.5 -58t-299.5 58t-206.5 160.5t-119.5 242.5t-38.5 302zM286 741q0 -290 118 -447t357 -157t357 157t118 447 t-118 447t-357 157t-357 -156.5t-118 -447.5zM548 1840l102 138l325 -275l-58 -81z" />
<glyph unicode="&#xd3;" horiz-adv-x="1520" d="M97 741q0 162 38.5 302t119.5 242t206.5 160.5t299.5 58.5t299.5 -58.5t206 -160.5t119.5 -242t39 -302q0 -163 -39 -302.5t-119.5 -242t-206 -160.5t-299.5 -58t-299.5 58t-206.5 160.5t-119.5 242.5t-38.5 302zM286 741q0 -290 118 -447t357 -157t357 157t118 447 t-118 447t-357 157t-357 -156.5t-118 -447.5zM547 1703l326 275l101 -138l-370 -218z" />
<glyph unicode="&#xd4;" horiz-adv-x="1520" d="M97 741q0 162 38.5 302t119.5 242t206.5 160.5t299.5 58.5t299.5 -58.5t206 -160.5t119.5 -242t39 -302q0 -163 -39 -302.5t-119.5 -242t-206 -160.5t-299.5 -58t-299.5 58t-206.5 160.5t-119.5 242.5t-38.5 302zM286 741q0 -290 118 -447t357 -157t357 157t118 447 t-118 447t-357 157t-357 -156.5t-118 -447.5zM441 1628l255 311h129l254 -311h-183l-136 187l-137 -187h-182z" />
<glyph unicode="&#xd5;" horiz-adv-x="1520" d="M97 741q0 162 38.5 302t119.5 242t206.5 160.5t299.5 58.5t299.5 -58.5t206 -160.5t119.5 -242t39 -302q0 -163 -39 -302.5t-119.5 -242t-206 -160.5t-299.5 -58t-299.5 58t-206.5 160.5t-119.5 242.5t-38.5 302zM286 741q0 -290 118 -447t357 -157t357 157t118 447 t-118 447t-357 157t-357 -156.5t-118 -447.5zM426 1660q0 232 195 232q47 0 84.5 -16.5t69.5 -37.5t59 -37t53 -16q45 0 59 28.5t14 72.5h133q0 -119 -49 -176t-142 -57q-48 0 -85 16t-68 37t-58.5 37.5t-58.5 16.5q-44 0 -59 -31.5t-15 -68.5h-132z" />
<glyph unicode="&#xd6;" horiz-adv-x="1520" d="M97 741q0 162 38.5 302t119.5 242t206.5 160.5t299.5 58.5t299.5 -58.5t206 -160.5t119.5 -242t39 -302q0 -163 -39 -302.5t-119.5 -242t-206 -160.5t-299.5 -58t-299.5 58t-206.5 160.5t-119.5 242.5t-38.5 302zM286 741q0 -290 118 -447t357 -157t357 157t118 447 t-118 447t-357 157t-357 -156.5t-118 -447.5zM437 1774q0 43 28.5 76.5t83.5 33.5t83.5 -33.5t28.5 -76.5q0 -45 -28.5 -78t-83.5 -33q-54 0 -83 33t-29 78zM859 1774q0 43 29 76.5t84 33.5q54 0 82.5 -33.5t28.5 -76.5q0 -45 -28.5 -78t-82.5 -33q-55 0 -84 33t-29 78z" />
<glyph unicode="&#xd7;" horiz-adv-x="1256" d="M191 304l321 321l-321 321l117 116l321 -321l321 321l116 -116l-321 -321l321 -321l-116 -117l-321 320l-321 -320z" />
<glyph unicode="&#xd8;" horiz-adv-x="1520" d="M97 741q0 162 38.5 302t119.5 242t206.5 160.5t299.5 58.5q105 0 190 -22t155 -62l92 149h147l-137 -222q112 -105 164.5 -260t52.5 -346q0 -163 -39 -302.5t-119.5 -242t-206.5 -160.5t-299 -58q-201 0 -346 81l-90 -147h-146l135 220q-111 106 -164 260.5t-53 348.5z M286 741q0 -149 30 -263.5t93 -191.5l608 992q-105 67 -256 67q-239 0 -357 -157t-118 -447zM504 201q101 -64 257 -64q239 0 357 157t118 447q0 294 -124 450z" />
<glyph unicode="&#xd9;" horiz-adv-x="1467" d="M172 594v887h189v-889q0 -221 96.5 -329.5t276.5 -108.5q181 0 277.5 108.5t96.5 329.5v889h189v-887q0 -315 -151.5 -465.5t-411.5 -150.5t-411 150.5t-151 465.5zM521 1840l101 138l325 -275l-58 -81z" />
<glyph unicode="&#xda;" horiz-adv-x="1467" d="M172 594v887h189v-889q0 -221 96.5 -329.5t276.5 -108.5q181 0 277.5 108.5t96.5 329.5v889h189v-887q0 -315 -151.5 -465.5t-411.5 -150.5t-411 150.5t-151 465.5zM522 1703l325 275l101 -138l-369 -218z" />
<glyph unicode="&#xdb;" horiz-adv-x="1467" d="M172 594v887h189v-889q0 -221 96.5 -329.5t276.5 -108.5q181 0 277.5 108.5t96.5 329.5v889h189v-887q0 -315 -151.5 -465.5t-411.5 -150.5t-411 150.5t-151 465.5zM415 1628l256 311h128l255 -311h-184l-136 187l-136 -187h-183z" />
<glyph unicode="&#xdc;" horiz-adv-x="1467" d="M172 594v887h189v-889q0 -221 96.5 -329.5t276.5 -108.5q181 0 277.5 108.5t96.5 329.5v889h189v-887q0 -315 -151.5 -465.5t-411.5 -150.5t-411 150.5t-151 465.5zM411 1774q0 43 28.5 76.5t83.5 33.5q56 0 84.5 -33.5t28.5 -76.5q0 -45 -28.5 -78t-84.5 -33 q-54 0 -83 33t-29 78zM833 1774q0 43 29 76.5t84 33.5q54 0 82.5 -33.5t28.5 -76.5q0 -45 -28.5 -78t-82.5 -33q-55 0 -84 33t-29 78z" />
<glyph unicode="&#xdd;" horiz-adv-x="1248" d="M35 1481h200l387 -688h5l387 688h199l-494 -850v-631h-189v631zM410 1703l326 275l101 -138l-370 -218z" />
<glyph unicode="&#xde;" horiz-adv-x="1252" d="M176 0v1481h189v-278h296q117 0 208 -34.5t154.5 -96t95.5 -144t32 -178.5q0 -99 -34.5 -183.5t-99.5 -147.5t-158 -98t-210 -35h-284v-286h-189zM365 462h284q146 0 230 74.5t84 213.5q0 132 -77 204t-225 72h-296v-564z" />
<glyph unicode="&#xdf;" horiz-adv-x="1315" d="M163 0v939q0 120 35 223.5t103.5 179.5t169 119t234.5 43q93 0 173.5 -26t140 -74.5t93.5 -119.5t34 -158q0 -61 -23.5 -110t-60 -83.5t-81.5 -58t-86 -32.5q62 -11 120 -41.5t102 -82t71.5 -125.5t27.5 -173q0 -117 -34 -199t-93.5 -137t-140 -80.5t-172.5 -25.5 q-197 0 -319 69l42 137q60 -28 126 -44t143 -16q118 0 191 74.5t73 237.5q0 153 -103.5 241.5t-303.5 88.5h-46v151h151q101 0 168 46t67 141q0 65 -23 111t-59.5 73t-83 39.5t-88.5 12.5q-185 0 -274 -108t-89 -293v-939h-185z" />
<glyph unicode="&#xe0;" horiz-adv-x="1107" d="M88 299q0 183 124 271.5t342 88.5h220v35q0 126 -67.5 183t-176.5 57q-94 0 -176.5 -19.5t-153.5 -52.5l-42 130q59 35 158 63.5t221 28.5q212 0 311.5 -107t99.5 -284v-693h-139l-35 180q-24 -39 -52 -76t-69.5 -64t-98.5 -44.5t-139 -17.5q-67 0 -126.5 20.5 t-104.5 61.5t-70.5 100.5t-25.5 138.5zM268 299q0 -81 51 -128t129 -47q74 0 132.5 27.5t102 72t67.5 100.5t24 114v84h-222q-139 0 -211.5 -58.5t-72.5 -164.5zM340 1410l102 138l325 -275l-58 -82z" />
<glyph unicode="&#xe1;" horiz-adv-x="1107" d="M88 299q0 183 124 271.5t342 88.5h220v35q0 126 -67.5 183t-176.5 57q-94 0 -176.5 -19.5t-153.5 -52.5l-42 130q59 35 158 63.5t221 28.5q212 0 311.5 -107t99.5 -284v-693h-139l-35 180q-24 -39 -52 -76t-69.5 -64t-98.5 -44.5t-139 -17.5q-67 0 -126.5 20.5 t-104.5 61.5t-70.5 100.5t-25.5 138.5zM268 299q0 -81 51 -128t129 -47q74 0 132.5 27.5t102 72t67.5 100.5t24 114v84h-222q-139 0 -211.5 -58.5t-72.5 -164.5zM341 1273l326 275l101 -138l-370 -219z" />
<glyph unicode="&#xe2;" horiz-adv-x="1107" d="M88 299q0 183 124 271.5t342 88.5h220v35q0 126 -67.5 183t-176.5 57q-94 0 -176.5 -19.5t-153.5 -52.5l-42 130q59 35 158 63.5t221 28.5q212 0 311.5 -107t99.5 -284v-693h-139l-35 180q-24 -39 -52 -76t-69.5 -64t-98.5 -44.5t-139 -17.5q-67 0 -126.5 20.5 t-104.5 61.5t-70.5 100.5t-25.5 138.5zM235 1198l255 311h128l255 -311h-183l-136 187l-137 -187h-182zM268 299q0 -81 51 -128t129 -47q74 0 132.5 27.5t102 72t67.5 100.5t24 114v84h-222q-139 0 -211.5 -58.5t-72.5 -164.5z" />
<glyph unicode="&#xe3;" horiz-adv-x="1107" d="M88 299q0 183 124 271.5t342 88.5h220v35q0 126 -67.5 183t-176.5 57q-94 0 -176.5 -19.5t-153.5 -52.5l-42 130q59 35 158 63.5t221 28.5q212 0 311.5 -107t99.5 -284v-693h-139l-35 180q-24 -39 -52 -76t-69.5 -64t-98.5 -44.5t-139 -17.5q-67 0 -126.5 20.5 t-104.5 61.5t-70.5 100.5t-25.5 138.5zM219 1229q0 233 196 233q47 0 84.5 -16.5t69 -37.5t59 -37t53.5 -16q45 0 59 28.5t14 71.5h133q0 -118 -49.5 -175t-141.5 -57q-48 0 -85 16t-68 37t-58.5 37.5t-58.5 16.5q-44 0 -59 -32t-15 -69h-133zM268 299q0 -81 51 -128 t129 -47q74 0 132.5 27.5t102 72t67.5 100.5t24 114v84h-222q-139 0 -211.5 -58.5t-72.5 -164.5z" />
<glyph unicode="&#xe4;" horiz-adv-x="1107" d="M88 299q0 183 124 271.5t342 88.5h220v35q0 126 -67.5 183t-176.5 57q-94 0 -176.5 -19.5t-153.5 -52.5l-42 130q59 35 158 63.5t221 28.5q212 0 311.5 -107t99.5 -284v-693h-139l-35 180q-24 -39 -52 -76t-69.5 -64t-98.5 -44.5t-139 -17.5q-67 0 -126.5 20.5 t-104.5 61.5t-70.5 100.5t-25.5 138.5zM231 1343q0 44 28.5 77.5t83.5 33.5t83.5 -33.5t28.5 -77.5t-28.5 -77t-83.5 -33q-54 0 -83 33t-29 77zM268 299q0 -81 51 -128t129 -47q74 0 132.5 27.5t102 72t67.5 100.5t24 114v84h-222q-139 0 -211.5 -58.5t-72.5 -164.5z M653 1343q0 44 29 77.5t84 33.5q54 0 82.5 -33.5t28.5 -77.5t-28.5 -77t-82.5 -33q-55 0 -84 33t-29 77z" />
<glyph unicode="&#xe5;" horiz-adv-x="1107" d="M88 299q0 183 124 271.5t342 88.5h220v35q0 126 -67.5 183t-176.5 57q-94 0 -176.5 -19.5t-153.5 -52.5l-42 130q59 35 158 63.5t221 28.5q212 0 311.5 -107t99.5 -284v-693h-139l-35 180q-24 -39 -52 -76t-69.5 -64t-98.5 -44.5t-139 -17.5q-67 0 -126.5 20.5 t-104.5 61.5t-70.5 100.5t-25.5 138.5zM268 299q0 -81 51 -128t129 -47q74 0 132.5 27.5t102 72t67.5 100.5t24 114v84h-222q-139 0 -211.5 -58.5t-72.5 -164.5zM343 1394q0 87 61.5 149t149.5 62t150 -62t62 -149q0 -89 -62 -148.5t-150 -59.5t-149.5 59.5t-61.5 148.5z M450 1396q0 -51 30 -80.5t74 -29.5t75 29.5t31 80.5q0 50 -31 80t-75 30t-74 -30t-30 -80z" />
<glyph unicode="&#xe6;" horiz-adv-x="1745" d="M88 299q0 183 124 271.5t342 88.5h220v35q0 126 -67.5 183t-176.5 57q-94 0 -176.5 -19.5t-153.5 -52.5l-42 130q59 35 158 63.5t221 28.5q132 0 211.5 -43t128.5 -119q53 76 144 119t215 43q207 0 307.5 -122t100.5 -326q0 -57 -5 -101.5t-17 -86.5h-674 q17 -155 96.5 -238t238.5 -83q69 0 135 13.5t130 43.5l42 -136q-71 -38 -145.5 -54t-178.5 -16q-174 0 -264 68t-138 192q-27 -51 -66 -97.5t-94 -82.5t-127 -58t-162 -22q-67 0 -126.5 20.5t-104.5 61.5t-70.5 100.5t-25.5 138.5zM268 299q0 -81 51 -128t129 -47 q74 0 132.5 25t102 69t67.5 99.5t24 120.5v84h-222q-139 0 -211.5 -58.5t-72.5 -164.5zM948 585h529v51q0 145 -51.5 226t-189.5 81q-80 0 -132.5 -27.5t-85.5 -75t-49.5 -113.5t-20.5 -142z" />
<glyph unicode="&#xe7;" horiz-adv-x="1010" d="M92 532q0 118 31 218.5t95.5 174t162.5 116.5t232 43q180 0 310 -68l-41 -139q-122 57 -271 57q-86 0 -149.5 -30.5t-105.5 -84t-61.5 -127.5t-19.5 -160t19.5 -161t62.5 -128.5t108 -84.5t155 -31q68 0 137 14.5t133 45.5l42 -137q-71 -37 -149 -54.5t-181 -17.5 q-130 0 -225.5 43t-159 118t-94.5 175.5t-31 217.5zM367 -367l182 283h122l-103 -283h-201z" />
<glyph unicode="&#xe8;" horiz-adv-x="1102" d="M92 532q0 118 26.5 218.5t85 174t150 116.5t223.5 43q217 0 321 -122t104 -326q0 -57 -5 -101.5t-17 -86.5h-705q17 -155 103 -238t247 -83q68 0 142.5 13.5t138.5 43.5l42 -136q-139 -71 -342 -70q-259 0 -386.5 149.5t-127.5 404.5zM271 585h560v51q0 145 -58 226 t-196 81q-80 0 -135 -27.5t-91.5 -75t-56 -113.5t-23.5 -142zM338 1410l102 138l325 -275l-58 -82z" />
<glyph unicode="&#xe9;" horiz-adv-x="1102" d="M92 532q0 118 26.5 218.5t85 174t150 116.5t223.5 43q217 0 321 -122t104 -326q0 -57 -5 -101.5t-17 -86.5h-705q17 -155 103 -238t247 -83q68 0 142.5 13.5t138.5 43.5l42 -136q-139 -71 -342 -70q-259 0 -386.5 149.5t-127.5 404.5zM271 585h560v51q0 145 -58 226 t-196 81q-80 0 -135 -27.5t-91.5 -75t-56 -113.5t-23.5 -142zM339 1273l326 275l101 -138l-370 -219z" />
<glyph unicode="&#xea;" horiz-adv-x="1102" d="M92 532q0 118 26.5 218.5t85 174t150 116.5t223.5 43q217 0 321 -122t104 -326q0 -57 -5 -101.5t-17 -86.5h-705q17 -155 103 -238t247 -83q68 0 142.5 13.5t138.5 43.5l42 -136q-139 -71 -342 -70q-259 0 -386.5 149.5t-127.5 404.5zM233 1198l255 311h129l254 -311 h-183l-136 187l-137 -187h-182zM271 585h560v51q0 145 -58 226t-196 81q-80 0 -135 -27.5t-91.5 -75t-56 -113.5t-23.5 -142z" />
<glyph unicode="&#xeb;" horiz-adv-x="1102" d="M92 532q0 118 26.5 218.5t85 174t150 116.5t223.5 43q217 0 321 -122t104 -326q0 -57 -5 -101.5t-17 -86.5h-705q17 -155 103 -238t247 -83q68 0 142.5 13.5t138.5 43.5l42 -136q-139 -71 -342 -70q-259 0 -386.5 149.5t-127.5 404.5zM229 1343q0 44 28.5 77.5t83.5 33.5 t83.5 -33.5t28.5 -77.5t-28.5 -77t-83.5 -33q-54 0 -83 33t-29 77zM271 585h560v51q0 145 -58 226t-196 81q-80 0 -135 -27.5t-91.5 -75t-56 -113.5t-23.5 -142zM651 1343q0 44 29 77.5t84 33.5q54 0 82.5 -33.5t28.5 -77.5t-28.5 -77t-82.5 -33q-55 0 -84 33t-29 77z" />
<glyph unicode="&#xec;" horiz-adv-x="526" d="M50 1410l102 138l325 -275l-58 -82zM172 0v1062h184v-1062h-184z" />
<glyph unicode="&#xed;" horiz-adv-x="526" d="M52 1273l326 275l101 -138l-370 -219zM172 0v1062h184v-1062h-184z" />
<glyph unicode="&#xee;" horiz-adv-x="526" d="M-53 1198l255 311h129l254 -311h-183l-136 187l-137 -187h-182zM172 0v1062h184v-1062h-184z" />
<glyph unicode="&#xef;" horiz-adv-x="526" d="M-57 1343q0 44 28.5 77.5t83.5 33.5t83.5 -33.5t28.5 -77.5t-28.5 -77t-83.5 -33q-54 0 -83 33t-29 77zM172 0v1062h184v-1062h-184zM365 1343q0 44 29 77.5t84 33.5q54 0 82.5 -33.5t28.5 -77.5t-28.5 -77t-82.5 -33q-55 0 -84 33t-29 77z" />
<glyph unicode="&#xf0;" horiz-adv-x="1206" d="M88 519q0 114 37.5 216t102 179.5t154.5 123.5t197 46q189 0 294 -112h6q-25 70 -84 143.5t-142 139.5l-268 -125l-43 95l217 101q-111 72 -234 113l64 120q171 -57 312 -165l256 120l48 -94l-216 -100q145 -139 233 -333t88 -433q0 -119 -35 -224.5t-102 -184 t-162.5 -123t-216.5 -44.5q-117 0 -210.5 43t-159.5 117t-101 172.5t-35 208.5zM268 522q0 -78 22.5 -149t65 -125.5t102 -86t136.5 -31.5q81 0 143.5 37t105 96.5t65 131.5t22.5 137q0 80 -20 153.5t-60.5 130.5t-103 91t-148.5 34q-81 0 -142.5 -34t-103 -91t-63 -133.5 t-21.5 -160.5z" />
<glyph unicode="&#xf1;" horiz-adv-x="1239" d="M165 0v1062h154l31 -159q20 30 55 62t81 58t104.5 43.5t124.5 17.5q171 0 268 -113t97 -310v-661h-180v661q0 120 -57.5 188t-160.5 68q-105 0 -190 -48.5t-142 -125.5v-743h-185zM285 1229q0 233 196 233q46 0 83.5 -16.5t69.5 -37.5t59 -37t54 -16q44 0 58.5 28.5 t14.5 71.5h133q0 -118 -49.5 -175t-141.5 -57q-49 0 -86 16t-67.5 37t-58.5 37.5t-59 16.5q-44 0 -59 -32t-15 -69h-132z" />
<glyph unicode="&#xf2;" horiz-adv-x="1185" d="M92 532q0 118 29.5 218.5t91.5 174t156.5 116.5t224.5 43t224 -43t156 -116.5t91.5 -174.5t29.5 -218t-29.5 -217.5t-91.5 -175.5t-156 -118t-224 -43t-224.5 43t-156.5 118t-91.5 175.5t-29.5 217.5zM275 532q0 -86 19 -161t57 -128.5t98.5 -84.5t144.5 -31 q83 0 143.5 31t99 84.5t57 128.5t18.5 161t-18.5 160t-57 127.5t-99 84t-143.5 30.5q-84 0 -144.5 -30.5t-98.5 -84t-57 -127.5t-19 -160zM380 1410l102 138l325 -275l-58 -82z" />
<glyph unicode="&#xf3;" horiz-adv-x="1185" d="M92 532q0 118 29.5 218.5t91.5 174t156.5 116.5t224.5 43t224 -43t156 -116.5t91.5 -174.5t29.5 -218t-29.5 -217.5t-91.5 -175.5t-156 -118t-224 -43t-224.5 43t-156.5 118t-91.5 175.5t-29.5 217.5zM275 532q0 -86 19 -161t57 -128.5t98.5 -84.5t144.5 -31 q83 0 143.5 31t99 84.5t57 128.5t18.5 161t-18.5 160t-57 127.5t-99 84t-143.5 30.5q-84 0 -144.5 -30.5t-98.5 -84t-57 -127.5t-19 -160zM381 1273l326 275l101 -138l-370 -219z" />
<glyph unicode="&#xf4;" horiz-adv-x="1185" d="M92 532q0 118 29.5 218.5t91.5 174t156.5 116.5t224.5 43t224 -43t156 -116.5t91.5 -174.5t29.5 -218t-29.5 -217.5t-91.5 -175.5t-156 -118t-224 -43t-224.5 43t-156.5 118t-91.5 175.5t-29.5 217.5zM275 532q0 -86 19 -161t57 -128.5t98.5 -84.5t144.5 -31 q83 0 143.5 31t99 84.5t57 128.5t18.5 161t-18.5 160t-57 127.5t-99 84t-143.5 30.5q-84 0 -144.5 -30.5t-98.5 -84t-57 -127.5t-19 -160zM275 1198l255 311h128l255 -311h-183l-136 187l-137 -187h-182z" />
<glyph unicode="&#xf5;" horiz-adv-x="1185" d="M92 532q0 118 29.5 218.5t91.5 174t156.5 116.5t224.5 43t224 -43t156 -116.5t91.5 -174.5t29.5 -218t-29.5 -217.5t-91.5 -175.5t-156 -118t-224 -43t-224.5 43t-156.5 118t-91.5 175.5t-29.5 217.5zM259 1229q0 233 196 233q47 0 84.5 -16.5t69 -37.5t58.5 -37t54 -16 q45 0 59 28.5t14 71.5h133q0 -118 -49.5 -175t-141.5 -57q-48 0 -85 16t-68 37t-58.5 37.5t-58.5 16.5q-44 0 -59.5 -32t-15.5 -69h-132zM275 532q0 -86 19 -161t57 -128.5t98.5 -84.5t144.5 -31q83 0 143.5 31t99 84.5t57 128.5t18.5 161t-18.5 160t-57 127.5t-99 84 t-143.5 30.5q-84 0 -144.5 -30.5t-98.5 -84t-57 -127.5t-19 -160z" />
<glyph unicode="&#xf6;" horiz-adv-x="1185" d="M92 532q0 118 29.5 218.5t91.5 174t156.5 116.5t224.5 43t224 -43t156 -116.5t91.5 -174.5t29.5 -218t-29.5 -217.5t-91.5 -175.5t-156 -118t-224 -43t-224.5 43t-156.5 118t-91.5 175.5t-29.5 217.5zM271 1343q0 44 28.5 77.5t83.5 33.5t83.5 -33.5t28.5 -77.5 t-28.5 -77t-83.5 -33q-54 0 -83 33t-29 77zM275 532q0 -86 19 -161t57 -128.5t98.5 -84.5t144.5 -31q83 0 143.5 31t99 84.5t57 128.5t18.5 161t-18.5 160t-57 127.5t-99 84t-143.5 30.5q-84 0 -144.5 -30.5t-98.5 -84t-57 -127.5t-19 -160zM693 1343q0 44 28.5 77.5 t84.5 33.5q54 0 82.5 -33.5t28.5 -77.5t-28.5 -77t-82.5 -33q-56 0 -84.5 33t-28.5 77z" />
<glyph unicode="&#xf7;" horiz-adv-x="1256" d="M174 550v149h910v-149h-910zM486 292q0 55 35 93.5t99 38.5t98.5 -38t34.5 -94q0 -54 -34.5 -92t-98.5 -38q-63 0 -98.5 38t-35.5 92zM486 952q0 55 35 93.5t99 38.5t98.5 -38.5t34.5 -93.5q0 -54 -34.5 -93t-98.5 -39q-63 0 -98.5 39t-35.5 93z" />
<glyph unicode="&#xf8;" horiz-adv-x="1185" d="M92 532q0 118 29.5 218.5t91.5 174t156.5 116.5t224.5 43q114 0 206 -37l82 147h125l-109 -197q100 -75 148.5 -196.5t48.5 -268.5q0 -117 -29.5 -217.5t-91.5 -175.5t-156 -118t-224 -43t-229 44l-59 -110h-126l93 168q-93 77 -137 193t-44 259zM275 532 q0 -92 19.5 -167t61.5 -130l370 673q-57 27 -132 26q-84 0 -144.5 -30.5t-98.5 -84t-57 -127.5t-19 -160zM443 163q64 -36 151 -36q83 0 143.5 31t99 84.5t57 128.5t18.5 161q0 99 -23 178t-73 134z" />
<glyph unicode="&#xf9;" horiz-adv-x="1225" d="M162 400v662h178v-662q0 -123 54 -191t143 -68q119 0 201 61.5t139 143.5v716h185v-1062h-150l-35 180q-19 -33 -52.5 -69t-79.5 -66t-106 -48.5t-135 -18.5q-77 0 -139.5 23.5t-107.5 74.5t-70 131.5t-25 192.5zM400 1410l102 138l324 -275l-57 -82z" />
<glyph unicode="&#xfa;" horiz-adv-x="1225" d="M162 400v662h178v-662q0 -123 54 -191t143 -68q119 0 201 61.5t139 143.5v716h185v-1062h-150l-35 180q-19 -33 -52.5 -69t-79.5 -66t-106 -48.5t-135 -18.5q-77 0 -139.5 23.5t-107.5 74.5t-70 131.5t-25 192.5zM400 1273l326 275l100 -138l-369 -219z" />
<glyph unicode="&#xfb;" horiz-adv-x="1225" d="M162 400v662h178v-662q0 -123 54 -191t143 -68q119 0 201 61.5t139 143.5v716h185v-1062h-150l-35 180q-19 -33 -52.5 -69t-79.5 -66t-106 -48.5t-135 -18.5q-77 0 -139.5 23.5t-107.5 74.5t-70 131.5t-25 192.5zM294 1198l255 311h128l255 -311h-183l-136 187l-137 -187 h-182z" />
<glyph unicode="&#xfc;" horiz-adv-x="1225" d="M162 400v662h178v-662q0 -123 54 -191t143 -68q119 0 201 61.5t139 143.5v716h185v-1062h-150l-35 180q-19 -33 -52.5 -69t-79.5 -66t-106 -48.5t-135 -18.5q-77 0 -139.5 23.5t-107.5 74.5t-70 131.5t-25 192.5zM290 1343q0 44 28.5 77.5t83.5 33.5t83.5 -33.5 t28.5 -77.5t-28.5 -77t-83.5 -33q-54 0 -83 33t-29 77zM712 1343q0 44 29 77.5t84 33.5q54 0 82.5 -33.5t28.5 -77.5t-28.5 -77t-82.5 -33q-55 0 -84 33t-29 77z" />
<glyph unicode="&#xfd;" horiz-adv-x="1218" d="M162 422v640h178v-640q0 -124 53 -191.5t142 -67.5q119 0 200 61.5t135 142.5v695h185v-972q0 -270 -131 -401.5t-364 -131.5q-100 0 -199 29t-161 68l46 148q63 -37 139.5 -58t161.5 -21q78 0 138 18t100.5 60.5t62.5 114t22 176.5v109q-19 -33 -52 -68.5t-78.5 -65 t-104 -48.5t-133.5 -19q-78 0 -140.5 23.5t-106 74.5t-68.5 132t-25 192zM396 1273l326 275l101 -138l-370 -219z" />
<glyph unicode="&#xfe;" horiz-adv-x="1229" d="M167 -420v1901h185v-578q19 30 55 62t82 58t103 43.5t123 17.5q108 0 186.5 -46t129.5 -122t75 -171.5t24 -194.5q0 -277 -121 -424.5t-318 -147.5q-57 0 -110 16t-98 44t-78.5 65.5t-52.5 76.5v-600h-185zM352 521q0 -86 26.5 -155.5t69 -118.5t98.5 -75.5t115 -26.5 q57 0 110.5 21t92.5 69t62.5 125.5t23.5 189.5q0 182 -73.5 274.5t-197.5 92.5q-96 0 -183 -49.5t-144 -124.5v-222z" />
<glyph unicode="&#xff;" horiz-adv-x="1218" d="M162 422v640h178v-640q0 -124 53 -191.5t142 -67.5q119 0 200 61.5t135 142.5v695h185v-972q0 -270 -131 -401.5t-364 -131.5q-100 0 -199 29t-161 68l46 148q63 -37 139.5 -58t161.5 -21q78 0 138 18t100.5 60.5t62.5 114t22 176.5v109q-19 -33 -52 -68.5t-78.5 -65 t-104 -48.5t-133.5 -19q-78 0 -140.5 23.5t-106 74.5t-68.5 132t-25 192zM286 1343q0 44 28.5 77.5t83.5 33.5t83.5 -33.5t28.5 -77.5t-28.5 -77t-83.5 -33q-54 0 -83 33t-29 77zM708 1343q0 44 29 77.5t84 33.5q54 0 82.5 -33.5t28.5 -77.5t-28.5 -77t-82.5 -33 q-55 0 -84 33t-29 77z" />
<glyph unicode="&#x131;" horiz-adv-x="526" d="M172 0v1062h184v-1062h-184z" />
<glyph unicode="&#x141;" horiz-adv-x="1128" d="M47 559v175l129 55v692h189v-608l321 141v-177l-321 -141v-520h699v-176h-888v613z" />
<glyph unicode="&#x142;" horiz-adv-x="526" d="M55 559v175l117 51v696h184v-615l116 51v-176l-116 -50v-691h-184v609z" />
<glyph unicode="&#x152;" horiz-adv-x="2142" d="M97 741q0 162 38.5 302t117.5 242t200.5 160.5t284.5 58.5q76 0 136 -14.5t106 -38.5t80.5 -55t57.5 -64v149h906v-173h-716v-455h673v-174h-673v-505h730v-174h-920v149q-50 -65 -138 -118t-233 -53q-169 0 -291.5 58t-202 160.5t-118 242.5t-38.5 302zM286 741 q0 -290 118 -447t357 -157q134 0 220.5 49t136.5 147v796q-50 98 -136.5 157t-220.5 59q-239 0 -357 -156.5t-118 -447.5z" />
<glyph unicode="&#x153;" horiz-adv-x="1850" d="M92 532q0 118 29.5 218.5t91.5 174t156.5 116.5t224.5 43q136 0 220 -52t127 -122q57 82 151 128t231 46q219 0 323 -122t104 -326q0 -57 -5.5 -101.5t-16.5 -86.5h-706q17 -155 103 -238t247 -83q67 0 142.5 13.5t138.5 43.5l42 -136q-139 -71 -340 -70 q-143 0 -245.5 46.5t-166.5 131.5q-28 -40 -60 -73t-73.5 -55.5t-95 -36t-120.5 -13.5q-130 0 -224.5 43t-156.5 118t-91.5 175.5t-29.5 217.5zM275 532q0 -86 19 -161t57 -128.5t98.5 -84.5t144.5 -31q207 0 281 167q-17 51 -26 112.5t-9 125.5q0 62 6.5 120.5t21.5 108.5 q-37 80 -103 126.5t-171 46.5q-84 0 -144.5 -30.5t-98.5 -84t-57 -127.5t-19 -160zM1017 585h561v51q0 145 -58 226t-197 81q-79 0 -134 -27.5t-91 -75t-56 -113.5t-25 -142z" />
<glyph unicode="&#x160;" horiz-adv-x="1164" d="M109 61l49 157q61 -31 151.5 -51t202.5 -20q80 0 146 14.5t113 44t74.5 77t27.5 113.5t-28.5 110t-76 75.5t-111 54.5t-132.5 46q-65 21 -138.5 51t-135.5 77.5t-102 118.5t-40 177q0 85 29 158t90.5 127t157.5 83.5t227 29.5q109 0 198 -21t165 -58l-49 -156 q-63 31 -143.5 48.5t-170.5 17.5q-172 0 -246.5 -63.5t-74.5 -161.5q0 -61 27 -103t72 -73t104 -52.5t125 -44.5q75 -27 153 -59.5t140.5 -83t102 -124t39.5 -179.5q0 -104 -39.5 -182.5t-111 -130t-171 -76t-221.5 -24.5q-141 0 -235.5 23.5t-167.5 59.5zM264 1934h182 l137 -186l136 186h183l-254 -310h-128z" />
<glyph unicode="&#x161;" horiz-adv-x="950" d="M101 47l41 137q59 -28 134.5 -44t155.5 -16q130 0 186 47t56 110q0 42 -20 71.5t-53.5 52.5t-77.5 40t-95 32q-73 21 -131.5 48t-102 64.5t-66.5 89t-23 121.5q0 134 103 209t285 75q90 0 174 -16.5t151 -51.5l-42 -139q-59 29 -125 45.5t-144 16.5q-118 0 -171 -39.5 t-53 -99.5q0 -71 55.5 -106t149.5 -65q91 -29 159 -60.5t113.5 -72.5t68 -93.5t22.5 -123.5q0 -137 -98 -219t-310 -82q-106 0 -193 16t-149 53zM156 1504h182l137 -186l136 186h183l-254 -310h-129z" />
<glyph unicode="&#x178;" horiz-adv-x="1248" d="M35 1481h200l387 -688h5l387 688h199l-494 -850v-631h-189v631zM301 1774q0 43 28.5 76.5t83.5 33.5t83.5 -33.5t28.5 -76.5q0 -45 -28.5 -78t-83.5 -33q-54 0 -83 33t-29 78zM723 1774q0 43 29 76.5t84 33.5q54 0 82.5 -33.5t28.5 -76.5q0 -45 -28.5 -78t-82.5 -33 q-55 0 -84 33t-29 78z" />
<glyph unicode="&#x17d;" horiz-adv-x="1203" d="M88 0v132l756 1176h-703v173h950v-132l-758 -1175h771v-174h-1016zM305 1934h182l137 -186l136 186h183l-254 -310h-129z" />
<glyph unicode="&#x17e;" horiz-adv-x="992" d="M92 0v105l561 807h-519v150h743v-105l-561 -808h582v-149h-806zM178 1504h182l137 -186l136 186h183l-255 -310h-128z" />
<glyph unicode="&#x192;" horiz-adv-x="1256" d="M109 -132l65 145q50 -22 109 -22q84 0 119.5 66.5t52.5 183.5l70 525h-202v107h219l20 163q14 93 39.5 169.5t68 130t107.5 85t159 31.5q50 0 89 -11.5t70 -28.5l-66 -146q-51 22 -110 22q-84 0 -118.5 -66t-53.5 -184l-23 -165h258v-107h-271l-72 -522 q-12 -93 -37 -169.5t-68.5 -130t-108 -85t-159.5 -31.5q-50 0 -88.5 11.5t-68.5 28.5z" />
<glyph unicode="&#x2c6;" horiz-adv-x="658" d="M10 1198l256 311h128l255 -311h-183l-136 187l-137 -187h-183z" />
<glyph unicode="&#x2c7;" horiz-adv-x="658" d="M10 1504h183l137 -186l136 186h183l-255 -310h-128z" />
<glyph unicode="&#x2d8;" horiz-adv-x="658" d="M10 1535h137q11 -71 60 -114.5t126 -43.5q78 0 126 43.5t60 114.5h130q-7 -62 -29 -116t-61.5 -93.5t-96.5 -62.5t-130 -23q-76 0 -133 23t-96 62.5t-62.5 93t-30.5 116.5z" />
<glyph unicode="&#x2d9;" horiz-adv-x="658" d="M207 1349q0 51 32 86.5t91 35.5t91 -35t32 -87q0 -50 -32 -85t-91 -35t-91 35t-32 85z" />
<glyph unicode="&#x2da;" horiz-adv-x="658" d="M119 1394q0 87 61 149t150 62q88 0 150 -62t62 -149q0 -89 -62 -148.5t-150 -59.5q-89 0 -150 59.5t-61 148.5zM226 1396q0 -51 30 -80.5t74 -29.5q43 0 74.5 29.5t31.5 80.5q0 50 -31.5 80t-74.5 30q-44 0 -74 -30t-30 -80z" />
<glyph unicode="&#x2db;" horiz-adv-x="658" d="M264 5h121l182 -284h-200z" />
<glyph unicode="&#x2dc;" horiz-adv-x="658" d="M-5 1229q0 233 196 233q47 0 84.5 -16.5t69 -37.5t58.5 -37t54 -16q45 0 59 28.5t14 71.5h133q0 -118 -49.5 -175t-141.5 -57q-48 0 -85 16t-68 37t-58.5 37.5t-59.5 16.5q-43 0 -58.5 -32t-15.5 -69h-132z" />
<glyph unicode="&#x2dd;" horiz-adv-x="658" d="M75 1211l191 308h204l-254 -308h-141zM428 1211l192 308h205l-254 -308h-143z" />
<glyph unicode="&#x3a9;" horiz-adv-x="1653" d="M154 840q0 151 47 273.5t134 209.5t211.5 134t279.5 47q154 0 279.5 -47t212.5 -134t134.5 -209t47.5 -274q0 -127 -36.5 -231.5t-89.5 -190t-112 -148.5t-108 -105h264v-165h-482v122q53 41 117.5 107.5t122 155.5t96.5 196t39 227q0 247 -128.5 383.5t-351.5 136.5 q-229 0 -359 -136.5t-130 -383.5q0 -120 39 -227t96.5 -196t121.5 -155.5t118 -107.5v-122h-482v165h264q-48 42 -107.5 105t-112.5 148.5t-89 191t-36 230.5z" />
<glyph unicode="&#x3c0;" horiz-adv-x="1315" d="M71 1002q19 14 49.5 25t67 19t75.5 13t75 5h885v-147h-260v-642q0 -66 29.5 -107t87.5 -41q44 0 65.5 5t43.5 13l40 -126q-31 -17 -76 -26.5t-96 -9.5q-79 0 -131.5 24t-84.5 67t-44 97.5t-12 118.5v627h-268v-474q0 -53 -6 -119.5t-15.5 -129t-24 -115t-31.5 -79.5h-181 q20 33 36 89t24.5 121t12.5 126.5t4 106.5v474q-78 -2 -134.5 -17.5t-102.5 -39.5z" />
<glyph unicode="&#xe00;" horiz-adv-x="427" />
<glyph unicode="&#xe01;" horiz-adv-x="1326" d="M105 884q18 71 67.5 138t122 118t166 82t198.5 31q126 0 220.5 -35t157 -99t94.5 -150.5t32 -192.5v-776h-189v776q0 158 -81.5 236.5t-233.5 78.5q-125 0 -222 -54.5t-131 -141.5l166 -154q-59 -31 -87.5 -76t-28.5 -115v-550h-189v522q0 64 31 121.5t88 86.5z" />
<glyph unicode="&#xe02;" horiz-adv-x="1220" d="M142 398v169q0 63 35 118.5t76 103.5t75.5 91t34.5 83v53q0 24 -12.5 38t-42.5 14h-152v163h174q118 0 165.5 -53.5t47.5 -145.5v-67q0 -59 -34.5 -112t-73.5 -100.5t-73 -93.5t-34 -92v-169q0 -119 62.5 -189t211.5 -70q136 0 201 60t65 223v809h189v-807 q0 -216 -106.5 -331t-348.5 -115q-121 0 -207.5 32t-142.5 89t-83 133t-27 166z" />
<glyph unicode="&#xe03;" horiz-adv-x="1229" d="M75 1087v166l154 -79q21 33 62.5 51.5t86.5 18.5q96 0 141 -57.5t45 -157.5v-44q0 -73 -35.5 -129t-78.5 -104.5t-78.5 -92.5t-35.5 -92v-169q0 -119 63 -189t212 -70q136 0 201 60t65 223v809h189v-807q0 -216 -106.5 -331t-348.5 -115q-122 0 -208.5 32t-142.5 89 t-82.5 133t-26.5 166v169q0 63 36.5 116t81 102.5t80.5 97t36 102.5v41q0 25 -12 40.5t-43 15.5q-57 0 -82 -73z" />
<glyph unicode="&#xe04;" horiz-adv-x="1361" d="M165 0v781q0 101 34 187t100 149.5t161.5 99.5t221.5 36t221 -36t161 -99.5t100 -149.5t34 -187v-781h-189v783q0 139 -81.5 223.5t-245.5 84.5q-165 0 -246.5 -84.5t-81.5 -223.5v-269q29 64 90 108.5t154 44.5h155v-165h-155q-88 0 -152 -49.5t-92 -148.5v-304h-189z " />
<glyph unicode="&#xe05;" horiz-adv-x="1384" d="M167 0v849q0 164 78 269t225 135l223 -147l222 147q147 -31 225.5 -136.5t78.5 -267.5v-849h-190v862q0 84 -33 136.5t-93 75.5l-210 -119l-211 119q-59 -24 -92.5 -76t-33.5 -136v-348q30 64 93 108.5t155 44.5h157v-165h-157q-87 0 -153 -49.5t-95 -148.5v-304h-189z " />
<glyph unicode="&#xe06;" horiz-adv-x="1331" d="M71 1087v166l153 -79q22 33 64 51.5t85 18.5q97 0 142 -57.5t45 -157.5v-44q0 -77 -31.5 -137.5t-69 -111t-69.5 -96.5t-32 -95v-154q22 -50 60.5 -95.5t87 -80.5t102 -54.5t109.5 -19.5q139 0 200 82.5t61 238.5v769h189v-771q0 -222 -105 -352t-324 -130 q-132 0 -224 55t-156 147l-10 -180h-178v545q0 64 32.5 119t72 107t72.5 103t33 111v41q0 25 -12 40.5t-43 15.5q-57 0 -81 -73z" />
<glyph unicode="&#xe07;" horiz-adv-x="1236" d="M31 1231h193l326 -1068h27q73 0 137 31.5t114.5 92.5t80.5 151t30 206q0 122 -20.5 207t-57 138t-86 77.5t-104.5 24.5q-37 0 -73 -5.5t-61 -17.5l-30 153q36 17 85.5 24.5t86.5 7.5q99 0 181.5 -40.5t142 -118.5t93 -191.5t33.5 -258.5q0 -149 -43.5 -268t-118.5 -202.5 t-175.5 -128.5t-220.5 -45h-168z" />
<glyph unicode="&#xe08;" horiz-adv-x="1191" d="M31 1080q93 77 217.5 125t263.5 48q286 0 428 -158.5t142 -439.5q0 -145 -40 -264.5t-112 -206.5t-172.5 -135.5t-220.5 -48.5h-155l-118 495q-7 28 -20 38t-37 10h-83v162h98q92 0 142.5 -34.5t75.5 -138.5l85 -369h29q65 0 126 33t108 95.5t75.5 155t28.5 210.5 q0 231 -99 332.5t-279 101.5q-125 0 -234.5 -45.5t-189.5 -113.5z" />
<glyph unicode="&#xe09;" horiz-adv-x="1296" d="M75 1082q105 75 236.5 123t292.5 48q264 0 396 -139.5t132 -377.5v-736h-177l-12 180q-26 -39 -56.5 -76t-73.5 -64t-102.5 -44.5t-139.5 -17.5q-182 0 -276 94.5t-94 279.5v143q0 48 -39 48h-72v162h128q77 0 123 -40t46 -140v-167q0 -111 53 -164t171 -53 q55 0 106 19.5t93.5 54.5t75.5 80t57 96v345q0 172 -84.5 263.5t-252.5 91.5q-138 0 -256.5 -46.5t-207.5 -110.5z" />
<glyph unicode="&#xe0a;" horiz-adv-x="1220" d="M142 398v169q0 63 35 118.5t76 103.5t75.5 91t34.5 83v53q0 24 -12.5 38t-42.5 14h-152v163h174q118 0 165.5 -53.5t47.5 -145.5v-67q0 -59 -34.5 -112t-73.5 -100.5t-73 -93.5t-34 -92v-169q0 -119 62.5 -189t211.5 -70q136 0 201 60t65 223v222q0 92 -38.5 132 t-101.5 40h-42l-27 79l233 336h207l-248 -323q89 -17 147.5 -87t58.5 -175v-222q0 -216 -106.5 -331t-348.5 -115q-121 0 -207.5 32t-142.5 89t-83 133t-27 166z" />
<glyph unicode="&#xe0b;" horiz-adv-x="1229" d="M75 1087v166l154 -79q21 33 62.5 51.5t86.5 18.5q96 0 141 -57.5t45 -157.5v-44q0 -73 -35.5 -129t-78.5 -104.5t-78.5 -92.5t-35.5 -92v-169q0 -119 63 -189t212 -70q136 0 201 60t65 223v222q0 92 -38.5 132t-102.5 40h-42l-25 79l233 336h206l-248 -323 q88 -17 147 -87t59 -175v-222q0 -216 -106.5 -331t-348.5 -115q-122 0 -208.5 32t-142.5 89t-82.5 133t-26.5 166v169q0 63 36.5 116t81 102.5t80.5 97t36 102.5v41q0 25 -12 40.5t-43 15.5q-57 0 -82 -73z" />
<glyph unicode="&#xe0c;" horiz-adv-x="2026" d="M105 884q18 71 65.5 138t116.5 118t158.5 82t190.5 31q121 0 210.5 -35t149 -99t89 -150.5t29.5 -192.5v-385q22 -50 59.5 -95.5t81.5 -80.5t92.5 -54.5t94.5 -19.5q121 0 176.5 82.5t55.5 238.5v769h189v-771q0 -225 -98.5 -353.5t-300.5 -128.5q-117 0 -201 55 t-149 147l-10 -180h-179v776q0 158 -75.5 236.5t-213.5 78.5q-113 0 -204.5 -54.5t-125.5 -141.5l166 -154q-59 -31 -87.5 -76t-28.5 -115v-334q0 -27 10 -42.5t41 -15.5h118v-158h-169q-90 0 -139.5 56t-49.5 142v324q0 64 31 121.5t88 86.5z" />
<glyph unicode="&#xe0d;" horiz-adv-x="2026" d="M105 884q18 71 65.5 138t116.5 118t158.5 82t190.5 31q121 0 210.5 -35t149 -99t89 -150.5t29.5 -192.5v-354q0 -124 59.5 -191.5t173.5 -67.5q120 0 200 62.5t127 141.5v864h189v-1097q0 -129 -36.5 -222.5t-101.5 -153.5t-156.5 -88t-200.5 -28q-128 0 -230 28t-164 68 l46 148q63 -37 148 -58t171 -21q77 0 138.5 11.5t105.5 47t67.5 100.5t23.5 171v64q-17 -33 -47.5 -68.5t-74 -65t-103.5 -48.5t-134 -19q-77 0 -146.5 23.5t-124 74.5t-87 132t-32.5 192v354q0 158 -75.5 236.5t-213.5 78.5q-113 0 -204.5 -54.5t-125.5 -141.5l166 -154 q-59 -31 -87.5 -76t-28.5 -115v-334q0 -27 10 -42.5t41 -15.5h118v-158h-169q-90 0 -139.5 56t-49.5 142v324q0 64 31 121.5t88 86.5z" />
<glyph unicode="&#xe0e;" horiz-adv-x="1349" d="M66 0v158h96q30 0 40 15.5t10 42.5v291q0 64 30.5 121.5t87.5 86.5l-203 169q18 71 67.5 138t122 118t166.5 82t199 31q126 0 220.5 -35t156.5 -99t94.5 -150.5t32.5 -192.5v-1216h-236q-55 50 -126 85.5t-161 35.5q-109 0 -182.5 -31.5t-147.5 -89.5l-50 146 q64 56 154.5 96t201.5 40q106 0 203 -46t155 -107v1087q0 158 -82 236.5t-233 78.5q-126 0 -222.5 -54.5t-131.5 -141.5l189 -169q-60 -32 -88.5 -77t-28.5 -114v-337q0 -86 -49 -143t-139 -55h-146z" />
<glyph unicode="&#xe0f;" horiz-adv-x="1349" d="M66 0v158h96q30 0 40 15.5t10 42.5v291q0 64 30.5 121.5t87.5 86.5l-203 169q18 71 67.5 138t122 118t166.5 82t199 31q126 0 220.5 -35t156.5 -99t94.5 -150.5t32.5 -192.5v-1216h-181l-262 157q-35 -78 -112 -124t-163 -46q-79 0 -153 19t-119 49l48 161 q46 -32 105.5 -56t107.5 -24q93 0 162 62.5t86 155.5l292 -173v1035q0 158 -82 236.5t-233 78.5q-126 0 -222.5 -54.5t-131.5 -141.5l189 -169q-60 -32 -88.5 -77t-28.5 -114v-337q0 -86 -49 -143t-139 -55h-146z" />
<glyph unicode="&#xe10;" horiz-adv-x="1191" d="M31 1080q93 77 217.5 125t263.5 48q163 0 283 -64l111 129h215l-191 -229q151 -164 152 -434q0 -145 -40 -264.5t-112 -206.5t-172.5 -135.5t-220.5 -48.5h-155l-118 495q-7 28 -20 38t-37 10h-83v162h98q92 0 142.5 -34.5t75.5 -138.5l85 -369h29q65 0 126 33t108 95.5 t75.5 155t28.5 210.5q0 227 -98 330.5t-280 103.5q-125 0 -234.5 -45.5t-189.5 -113.5zM139 -273h155q71 0 122.5 29.5t95.5 78.5q44 -49 88 -78.5t119 -29.5h116v128h181v-295h-288q-77 0 -131 32t-85 75q-29 -45 -90 -76t-139 -31h-144v167z" />
<glyph unicode="&#xe11;" horiz-adv-x="1338" d="M92 1087v166l132 -79q22 33 64 51.5t85 18.5q75 0 117 -47t45 -110q44 64 121.5 115t189.5 51q143 0 234.5 -103t91.5 -306v-844h-190v844q0 132 -41 189.5t-130 57.5q-79 0 -160.5 -61t-146 -152t-105.5 -197t-41 -202v-479h-188v479q0 80 19.5 148.5t51.5 128.5 t69.5 109.5t69.5 89.5v71q0 25 -12 40.5t-43 15.5q-57 0 -81 -73z" />
<glyph unicode="&#xe12;" horiz-adv-x="2168" d="M109 622q0 128 32.5 234.5t90.5 189.5t140.5 135t181.5 72l176 -139l180 139q147 -31 225 -136.5t78 -267.5v-458q22 -50 61 -95.5t85 -80.5t98.5 -54.5t105.5 -19.5q135 0 194 82.5t59 238.5v769h189v-771q0 -225 -102.5 -353.5t-316.5 -128.5q-131 0 -219.5 55 t-153.5 147l-10 -180h-179v862q0 84 -32.5 136.5t-91.5 75.5l-170 -111l-166 111q-117 -24 -191 -137.5t-74 -314.5q0 -134 28.5 -225t73.5 -146t101.5 -78.5t112.5 -23.5q46 0 80.5 7t70.5 20l34 -149q-38 -17 -88.5 -28.5t-105.5 -11.5q-104 0 -194.5 35t-157.5 112.5 t-106 197t-39 290.5z" />
<glyph unicode="&#xe13;" horiz-adv-x="2026" d="M105 884q18 71 65.5 138t116.5 118t158.5 82t190.5 31q121 0 210.5 -35t149 -99t89 -150.5t29.5 -192.5v-380q0 -119 51 -187t148 -68q59 0 112.5 19.5t99.5 54.5t82.5 80t60.5 96v840h190v-1231h-178l-12 180q-63 -92 -148 -147t-217 -55q-187 0 -282.5 111.5 t-95.5 304.5v382q0 158 -75.5 236.5t-213.5 78.5q-113 0 -204.5 -54.5t-125.5 -141.5l166 -154q-59 -31 -87.5 -76t-28.5 -115v-334q0 -27 10 -42.5t41 -15.5h118v-158h-169q-90 0 -139.5 56t-49.5 142v324q0 64 31 121.5t88 86.5z" />
<glyph unicode="&#xe14;" horiz-adv-x="1373" d="M109 602q0 139 36.5 257.5t109.5 205t182.5 137.5t256.5 51q134 0 231 -41.5t160 -114.5t93 -167.5t30 -199.5v-730h-188v732q0 77 -19 143t-58.5 113.5t-99.5 75t-144 27.5q-195 0 -297.5 -129t-102.5 -360q0 -128 29.5 -214t77 -139t104.5 -76.5t115 -23.5q46 0 79.5 7 t69.5 20l35 -149q-38 -17 -88 -28.5t-106 -11.5q-98 0 -190.5 37t-162 113.5t-111.5 192t-42 272.5z" />
<glyph unicode="&#xe15;" horiz-adv-x="1404" d="M109 613q0 130 33.5 240t93.5 193t144 135t182 72l185 -139l189 139q147 -31 225.5 -136.5t78.5 -267.5v-849h-189v862q0 84 -33 136.5t-93 75.5l-178 -111l-172 111q-118 -24 -197 -140t-79 -321q0 -132 29.5 -219.5t77 -142.5t104.5 -78.5t115 -23.5q46 0 79.5 7 t69.5 20l35 -149q-38 -17 -88 -28.5t-106 -11.5q-105 0 -196 35t-160.5 111t-109.5 194.5t-40 285.5z" />
<glyph unicode="&#xe16;" horiz-adv-x="1331" d="M105 884q18 71 67.5 138t123.5 118t167 82t198 31q126 0 220.5 -35t158.5 -99t95.5 -150.5t31.5 -192.5v-776h-189v776q0 158 -82 236.5t-235 78.5q-125 0 -223 -54.5t-132 -141.5l166 -154q-59 -31 -87.5 -76t-28.5 -115v-334q0 -27 10 -42.5t41 -15.5h118v-158h-169 q-90 0 -139.5 56t-49.5 142v324q0 64 31 121.5t88 86.5z" />
<glyph unicode="&#xe17;" horiz-adv-x="1349" d="M170 0v1231h178l10 -180q33 38 78.5 74t100.5 65t118.5 46t133.5 17q96 0 170.5 -32.5t124.5 -94.5t76 -146.5t26 -190.5v-789h-189v789q0 158 -60 230t-156 72q-71 0 -133.5 -21t-118 -55.5t-99 -80.5t-72.5 -94v-840h-188z" />
<glyph unicode="&#xe18;" horiz-adv-x="1220" d="M101 927q0 146 132 236t371 90q264 0 451 -97l-38 -151q-83 44 -188 68t-220 24q-165 0 -245.5 -48.5t-80.5 -121.5q0 -61 34.5 -88.5t85.5 -35.5l428 -62q134 -20 207.5 -89t73.5 -204v-106q0 -107 -28.5 -177.5t-89 -111t-156 -56.5t-227.5 -16q-134 0 -228.5 19 t-155 63t-89.5 118.5t-29 181.5v139h183v-139q0 -68 18 -112t55.5 -69.5t98.5 -35t147 -9.5q88 0 150 7t99.5 30.5t53.5 63t16 104.5v109q0 59 -31 87.5t-88 38.5l-429 59q-126 17 -203.5 86t-77.5 205z" />
<glyph unicode="&#xe19;" horiz-adv-x="1331" d="M165 438v793h189v-791q0 -156 61.5 -227.5t199.5 -71.5q55 0 109 19.5t102.5 54.5t86 80t61.5 96v840h189v-1231h-178l-11 180q-64 -92 -158.5 -147t-244.5 -55q-201 0 -303.5 118t-102.5 342z" />
<glyph unicode="&#xe1a;" horiz-adv-x="1326" d="M165 453v778h189v-778q0 -145 75.5 -228.5t233.5 -83.5t234.5 83.5t76.5 228.5v778h189v-778q0 -229 -127.5 -352t-372.5 -123q-243 0 -370.5 123t-127.5 352z" />
<glyph unicode="&#xe1b;" horiz-adv-x="1326" d="M165 453v778h189v-778q0 -145 75.5 -228.5t233.5 -83.5t234.5 83.5t76.5 228.5v1196h189v-1196q0 -229 -127.5 -352t-372.5 -123q-243 0 -370.5 123t-127.5 352z" />
<glyph unicode="&#xe1c;" horiz-adv-x="1449" d="M170 0v1034q0 86 49 142.5t139 54.5h146v-163h-95q-55 0 -55 -57v-436q0 -102 -4 -187.5t-17 -173.5h5q17 63 41 132t57 131l219 408h151l211 -411q32 -61 53 -122.5t42 -137.5h4q-12 88 -15.5 173t-3.5 188v656h185v-1231h-202l-280 556q-27 50 -45.5 103t-22.5 77h-4 q-4 -24 -23 -77t-46 -103l-288 -556h-201z" />
<glyph unicode="&#xe1d;" horiz-adv-x="1449" d="M170 0v1034q0 86 49 142.5t139 54.5h146v-163h-95q-55 0 -55 -57v-436q0 -102 -4 -187.5t-17 -173.5h5q17 63 41 132t57 131l219 408h151l211 -411q32 -61 53 -122.5t42 -137.5h4q-12 88 -15.5 173t-3.5 188v1074h185v-1649h-202l-280 556q-27 50 -45.5 103t-22.5 77h-4 q-4 -24 -23 -77t-46 -103l-288 -556h-201z" />
<glyph unicode="&#xe1e;" horiz-adv-x="1560" d="M80 1231h191l111 -699q7 -46 12.5 -82.5t9 -73t6.5 -78t5 -100.5h7q17 109 34.5 192.5t42.5 168.5l200 611h163l200 -611q25 -85 42 -168t35 -193h7q2 58 5 100t6.5 78.5t9 73t12.5 82.5l111 699h191l-203 -1231h-210l-210 631q-25 78 -44 158.5t-31 190.5h-5 q-12 -110 -31 -191t-44 -158l-210 -631h-210z" />
<glyph unicode="&#xe1f;" horiz-adv-x="1560" d="M80 1231h191l111 -699q7 -46 12.5 -82.5t9 -73t6.5 -78t5 -100.5h7q17 109 34.5 192.5t42.5 168.5l200 611h163l206 -611q31 -85 51 -168t37 -193h7q2 55 3 96.5t4.5 79l7 75t8.5 83.5l113 1117h173l-173 -1649h-208l-223 631q-24 78 -48.5 158.5t-36.5 190.5h-5 q-12 -110 -31 -191t-44 -158l-210 -631h-210z" />
<glyph unicode="&#xe20;" horiz-adv-x="1349" d="M66 0v158h96q30 0 40 15.5t10 42.5v291q0 64 30.5 121.5t87.5 86.5l-203 169q18 71 67.5 138t122 118t166.5 82t199 31q126 0 220.5 -35t156.5 -99t94.5 -150.5t32.5 -192.5v-776h-189v776q0 158 -82 236.5t-233 78.5q-126 0 -222.5 -54.5t-131.5 -141.5l189 -169 q-60 -32 -88.5 -77t-28.5 -114v-337q0 -86 -49 -143t-139 -55h-146z" />
<glyph unicode="&#xe21;" horiz-adv-x="1331" d="M170 0v1231h188v-840q22 -50 60.5 -95.5t87 -80.5t102 -54.5t109.5 -19.5q139 0 200 82.5t61 238.5v769h189v-771q0 -222 -105 -352t-324 -130q-132 0 -224 55t-156 147l-10 -180h-178z" />
<glyph unicode="&#xe22;" horiz-adv-x="1273" d="M101 376q0 109 55.5 187.5t149.5 110.5q-84 20 -144.5 90.5t-60.5 195.5q0 124 83.5 204t230.5 80q62 0 111 -10.5t83 -27.5l-22 -157q-21 10 -60 21.5t-81 11.5q-81 0 -122 -41t-41 -105q0 -44 19 -76t47.5 -54.5t63.5 -33.5t71 -11h187l15 -163h-174q-97 0 -161.5 -57 t-64.5 -154q0 -59 25 -105.5t68 -78t99.5 -47t117.5 -15.5q165 0 245.5 82.5t80.5 238.5v769h188v-771q0 -108 -28 -197t-91.5 -152t-161 -98t-237.5 -35q-234 0 -362.5 103t-128.5 295z" />
<glyph unicode="&#xe23;" horiz-adv-x="1083" d="M97 925q0 156 124.5 242t337.5 86q102 0 201.5 -21t175.5 -60l-48 -150q-135 70 -311 70q-139 0 -217.5 -47.5t-78.5 -119.5q0 -40 22 -70t59.5 -53.5t86 -42t103.5 -35.5q103 -33 183.5 -69.5t135 -83t83 -105.5t28.5 -141q0 -155 -117.5 -251t-360.5 -96 q-122 0 -223.5 22t-173.5 64l47 148q67 -33 155.5 -53t185.5 -20q149 0 226 58.5t77 132.5q0 46 -27.5 81t-72.5 63t-100.5 48t-113.5 37q-84 24 -155.5 53.5t-123 72.5t-80 101t-28.5 139z" />
<glyph unicode="&#xe24;" horiz-adv-x="1331" d="M105 884q18 71 67.5 138t123.5 118t167 82t198 31q126 0 220.5 -35t158.5 -99t95.5 -150.5t31.5 -192.5v-1216h-189v1216q0 158 -82 236.5t-235 78.5q-125 0 -223 -54.5t-132 -141.5l166 -154q-59 -31 -87.5 -76t-28.5 -115v-334q0 -27 10 -42.5t41 -15.5h118v-158h-169 q-90 0 -139.5 56t-49.5 142v324q0 64 31 121.5t88 86.5z" />
<glyph unicode="&#xe25;" horiz-adv-x="1265" d="M80 346q0 193 136 302t411 109h285v28q0 145 -68 227.5t-242 82.5q-125 0 -232.5 -37.5t-187.5 -92.5l-60 134q33 30 84 57t116 49t140 35t156 13q236 0 359.5 -126.5t123.5 -339.5v-787h-189v594h-308q-156 0 -246 -61t-90 -185q0 -108 64 -159.5t161 -51.5 q46 0 97.5 9.5t91.5 27.5l30 -157q-48 -17 -111.5 -28t-128.5 -11q-83 0 -154.5 23.5t-124 68t-83 114.5t-30.5 162z" />
<glyph unicode="&#xe26;" horiz-adv-x="1349" d="M66 0v158h96q30 0 40 15.5t10 42.5v291q0 64 30.5 121.5t87.5 86.5l-203 169q18 71 67.5 138t122 118t166.5 82t199 31q126 0 220.5 -35t156.5 -99t94.5 -150.5t32.5 -192.5v-1216h-189v1216q0 158 -82 236.5t-233 78.5q-126 0 -222.5 -54.5t-131.5 -141.5l189 -169 q-60 -32 -88.5 -77t-28.5 -114v-337q0 -86 -49 -143t-139 -55h-146z" />
<glyph unicode="&#xe27;" horiz-adv-x="1156" d="M80 1129q87 57 198 90.5t227 33.5q266 0 404 -165.5t138 -462.5q0 -317 -147 -482t-414 -165q-125 0 -222 31t-182 88l45 153q80 -49 169 -79t194 -30q168 0 268 114.5t100 350.5q0 251 -95.5 368t-272.5 117q-117 0 -200 -29.5t-166 -85.5z" />
<glyph unicode="&#xe28;" horiz-adv-x="1361" d="M165 0v781q0 101 35 187t101 149.5t162.5 99.5t222.5 36q147 0 246 -62l106 127h215l-187 -223q71 -57 101.5 -145t30.5 -182v-768h-189v770q0 67 -20 127t-59.5 102.5t-100.5 67t-143 24.5q-165 0 -248.5 -84.5t-83.5 -223.5v-269q29 64 90 108.5t154 44.5h147v-165 h-147q-88 0 -152 -49.5t-92 -148.5v-304h-189z" />
<glyph unicode="&#xe29;" horiz-adv-x="1357" d="M165 453v778h189v-778q0 -145 75.5 -228.5t233.5 -83.5t234.5 83.5t76.5 228.5v193h-288v163h288v422h189v-422h186l-43 -163h-143v-193q0 -229 -127.5 -352t-372.5 -123q-243 0 -370.5 123t-127.5 352z" />
<glyph unicode="&#xe2a;" horiz-adv-x="1265" d="M80 346q0 193 136 302t411 109h285v28q0 67 -15 124.5t-51.5 99.5t-94.5 64t-142 22q-135 0 -241 -37.5t-186 -92.5l-60 134q35 30 88.5 58.5t118.5 49t137.5 33.5t142.5 13q141 0 249 -48l94 113h215l-173 -210q55 -59 81 -141t26 -180v-787h-189v594h-308 q-156 0 -246 -61t-90 -185q0 -108 64 -159.5t161 -51.5q46 0 97.5 9.5t91.5 27.5l30 -157q-48 -17 -111.5 -28t-128.5 -11q-83 0 -154.5 23.5t-124 68t-83 114.5t-30.5 162z" />
<glyph unicode="&#xe2b;" horiz-adv-x="1287" d="M170 0v1231h188v-484l585 484h255l-430 -356q118 -17 183 -99t103 -201l169 -575h-203l-162 559q-62 201 -224 207l-276 -227v-539h-188z" />
<glyph unicode="&#xe2c;" horiz-adv-x="1449" d="M170 0v1231h184v-656q0 -102 -3 -187.5t-18 -173.5h5q22 77 43.5 138t50.5 122l214 411h149l221 -408q33 -62 56 -131t40 -132h4q-10 88 -14.5 173t-4.5 188v347q0 120 -36.5 176t-145.5 56h-27l-26 79l286 416h192l-293 -403q61 -6 105 -35.5t72.5 -74t43 -99.5 t14.5 -114v-923h-202l-289 556q-26 50 -44.5 103t-22.5 77h-5q-4 -24 -23 -77t-45 -103l-280 -556h-201z" />
<glyph unicode="&#xe2d;" horiz-adv-x="1300" d="M109 420v66q0 114 61 166.5t163 52.5h199v-162h-176q-24 0 -40.5 -16.5t-16.5 -47.5v-59q0 -145 81.5 -212t248.5 -67q177 0 275 113t98 368q0 227 -98 348t-277 121q-145 0 -256.5 -41t-194.5 -104l-62 141q37 30 92.5 59.5t121.5 54t141.5 38.5t157.5 14 q276 0 420 -171.5t144 -468.5q0 -313 -144 -474t-413 -161q-267 0 -396 114.5t-129 327.5z" />
<glyph unicode="&#xe2e;" horiz-adv-x="1300" d="M109 420v66q0 114 61 166.5t163 52.5h199v-162h-176q-24 0 -40.5 -16.5t-16.5 -47.5v-59q0 -145 81.5 -212t248.5 -67q177 0 275 113t98 368q0 112 -28 199t-78 146t-119 91.5t-150 32.5q-145 0 -256.5 -41t-194.5 -104l-62 141q37 30 92.5 59.5t121.5 54t141.5 38.5 t157.5 14q149 0 265 -59l106 124h215l-189 -223q84 -84 125.5 -206.5t41.5 -275.5q0 -313 -144 -474t-413 -161q-267 0 -396 114.5t-129 327.5z" />
<glyph unicode="&#xe2f;" horiz-adv-x="1206" d="M88 1151v80h185v-81q0 -143 53.5 -215.5t172.5 -72.5q63 0 127.5 30t115.5 77t83.5 107.5t32.5 121.5v33h180v-1231h-189v919q-22 -46 -63 -85t-92.5 -66t-112 -41.5t-124.5 -14.5q-101 0 -171 33t-114.5 91.5t-64 138.5t-19.5 176z" />
<glyph unicode="&#xe30;" horiz-adv-x="658" d="M97 367v107h180v-89q0 -43 42 -43h231v-153h-256q-90 0 -143.5 39.5t-53.5 138.5zM97 974v108h180v-90q0 -42 42 -42h231v-155h-256q-90 0 -143.5 40t-53.5 139z" />
<glyph unicode="&#xe31;" d="M-631 1596v88h180v-66q0 -66 62 -66h519v-154h-539q-222 0 -222 198z" />
<glyph unicode="&#xe32;" horiz-adv-x="1041" d="M22 1104q33 28 80 56t103.5 48.5t116.5 32.5t123 12q215 0 323.5 -122t108.5 -346v-785h-189v793q0 297 -261 298q-106 0 -198 -38.5t-156 -92.5z" />
<glyph unicode="&#xe33;" horiz-adv-x="1041" d="M-482 1587q0 47 17 86t46.5 69.5t68.5 47.5t86 17q46 0 85.5 -17t69 -47.5t47.5 -69.5t18 -86q0 -45 -18 -86t-47.5 -70.5t-69 -46t-85.5 -16.5q-47 0 -86 16.5t-68.5 46t-46.5 70.5t-17 86zM-356 1590q0 -40 27 -68.5t65 -28.5q42 0 68 28.5t26 68.5q0 42 -26 68t-68 26 q-38 0 -65 -26t-27 -68zM22 1104q33 28 80 56t103.5 48.5t116.5 32.5t123 12q215 0 323.5 -122t108.5 -346v-785h-189v793q0 297 -261 298q-106 0 -198 -38.5t-156 -92.5z" />
<glyph unicode="&#xe34;" d="M-1108 1398v154h943v-154h-943z" />
<glyph unicode="&#xe35;" d="M-1108 1398v154h766v202h177v-356h-943z" />
<glyph unicode="&#xe36;" d="M-1108 1398v154h609q-3 11 -4 21.5t-1 20.5q0 84 56.5 140t136.5 56q85 0 141 -56t56 -140q0 -82 -54 -136.5t-134 -59.5h-9h-5h-792zM-385 1596q0 -30 22 -54.5t52 -24.5q34 0 56 24.5t22 54.5q0 33 -22 55.5t-56 22.5q-30 0 -52 -22.5t-22 -55.5z" />
<glyph unicode="&#xe37;" d="M-1108 1398v154h514v202h156v-206h117v206h156v-356h-943z" />
<glyph unicode="&#xe38;" d="M-482 -151h144q92 0 132.5 -44t40.5 -143v-237h-185v219q0 45 -46 45h-86v160z" />
<glyph unicode="&#xe39;" d="M-853 -151h297v-216q0 -51 30.5 -73t74.5 -22t74.5 22t30.5 73v216h181v-216q0 -112 -73 -171.5t-213 -59.5q-141 0 -211 59.5t-70 171.5v61h-121v155z" />
<glyph unicode="&#xe3a;" d="M-415 -275q0 57 42.5 99t99.5 42q61 0 103.5 -42t42.5 -99t-42.5 -97.5t-103.5 -40.5q-57 0 -99.5 40.5t-42.5 97.5z" />
<glyph unicode="&#xe3f;" horiz-adv-x="1256" d="M163 0v1429h435v220h123v-222q202 -15 303.5 -118t101.5 -262q0 -64 -22 -113t-55 -84.5t-71.5 -59.5t-74.5 -39q52 -8 102 -32.5t91 -65t66.5 -98.5t25.5 -137q0 -177 -115.5 -290t-351.5 -126v-222h-123v220h-435zM342 165h256v492h-256v-492zM342 820h256v444h-256 v-444zM721 167q135 12 210.5 75.5t75.5 175.5q0 61 -21 103.5t-58.5 71.5t-90 43.5t-116.5 18.5v-488zM721 825q95 12 160 68.5t65 161.5q0 93 -60.5 143t-164.5 63v-436z" />
<glyph unicode="&#xe40;" horiz-adv-x="531" d="M172 0v1231h189v-1231h-189z" />
<glyph unicode="&#xe41;" horiz-adv-x="956" d="M172 0v1231h184v-1231h-184zM602 0v1231h185v-1231h-185z" />
<glyph unicode="&#xe42;" horiz-adv-x="601" d="M-22 1807q36 61 90 109t121 79t144.5 47t161.5 16q134 0 215 -17t148 -42l-30 -167q-62 35 -147 50t-169 15q-105 0 -192 -24t-127 -75q110 -59 167.5 -185.5t57.5 -277.5v-1335h-189v1353q0 101 -32 175.5t-73.5 126t-82.5 78.5t-58 35z" />
<glyph unicode="&#xe43;" horiz-adv-x="601" d="M-82 1873q30 40 73.5 74t98.5 58t116.5 38.5t123.5 14.5q88 0 156 -25.5t114 -69.5t69.5 -102.5t23.5 -125.5q0 -82 -43.5 -150t-94.5 -135.5t-94 -142t-43 -168.5v-1139h-189v1186q0 92 42 165.5t91 137t91 122.5t42 124q0 71 -41 114t-138 43q-81 0 -171 -37t-167 -114 z" />
<glyph unicode="&#xe44;" horiz-adv-x="601" d="M-145 1869v155h784v-132q-104 -48 -162.5 -143.5t-58.5 -239.5v-1509h-189v1467q0 134 45 232.5t124 169.5h-543z" />
<glyph unicode="&#xe45;" horiz-adv-x="1041" d="M22 1104q33 28 80 56t103.5 48.5t116.5 32.5t123 12q215 0 323.5 -122t108.5 -346v-1225h-189v1233q0 297 -261 298q-106 0 -198 -38.5t-156 -92.5z" />
<glyph unicode="&#xe46;" horiz-adv-x="1227" d="M109 960q0 66 26.5 117.5t67.5 87t96 58.5t114 34l176 -133l179 133q75 -4 131 -35t93 -79t54.5 -111t17.5 -130v-1342h-189v1355q0 169 -105 189l-181 -130l-184 130q-137 -31 -137 -144q0 -62 37 -98t102 -36q36 0 59 9l22 -142q-24 -9 -51.5 -12.5t-51.5 -3.5 q-53 0 -102.5 17t-88 50.5t-62 87t-23.5 128.5z" />
<glyph unicode="&#xe47;" d="M-972 1624q0 49 16.5 92.5t49.5 79.5t85.5 56.5t126.5 20.5h450v-149h-444q-59 0 -83 -31t-24 -71q0 -39 24 -65.5t72 -26.5q38 0 65.5 28.5t33.5 59.5h105q9 -32 34 -49t74 -17h146v-154h-137q-57 0 -100 30t-65 76q-16 -46 -62 -80.5t-125 -34.5q-57 0 -102 20t-76 53 t-47.5 74.5t-16.5 87.5z" />
<glyph unicode="&#xe48;" d="M-342 1863v293h177v-293h-177z" />
<glyph unicode="&#xe49;" d="M-589 2042v154h178q57 0 90 -25t33 -77v-49q0 -31 31 -31h297v-151h-396q-38 0 -65 23.5t-27 63.5v57q0 17 -4.5 26t-24.5 9h-112z" />
<glyph unicode="&#xe4a;" d="M-761 1972q0 66 50 124.5t149 66.5l111 -101l103 103q191 -7 174 -198q44 20 57.5 54.5t13.5 103.5q0 30 -5.5 52.5t-16.5 45.5h175q7 -17 11.5 -38.5t5.5 -46.5q0 -58 -19 -107.5t-55.5 -86.5t-85.5 -59t-111 -22h-88l-19 36q20 19 21 53q0 32 -19 47t-45 17l-97 -77 l-96 70q-25 0 -39 -16.5t-14 -40.5q0 -17 4 -39.5t19 -54.5h-166q-10 32 -14 61t-4 53z" />
<glyph unicode="&#xe4b;" d="M-486 1991v132l156 -4l-6 136h164l-4 -136l157 4v-132l-157 6l4 -134h-164l6 134z" />
<glyph unicode="&#xe4c;" d="M-464 1674v69q0 95 56 150t169 55h197v-154h-142q-40 0 -61 -17t-21 -57v-46h-198z" />
<glyph unicode="&#xe4d;" d="M-482 1587q0 47 17 86t46.5 69.5t68.5 47.5t86 17q46 0 85.5 -17t69 -47.5t47.5 -69.5t18 -86q0 -45 -18 -86t-47.5 -70.5t-69 -46t-85.5 -16.5q-47 0 -86 16.5t-68.5 46t-46.5 70.5t-17 86zM-356 1590q0 -40 27 -68.5t65 -28.5q42 0 68 28.5t26 68.5q0 42 -26 68t-68 26 q-38 0 -65 -26t-27 -68z" />
<glyph unicode="&#xe4e;" d="M-677 1584q0 81 55 135t176 41q-14 16 -20 36t-6 39q0 45 37 75.5t119 30.5h132l30 -123h-132q-17 0 -27 -11t-10 -29q0 -35 55 -61l-36 -93q-66 20 -128 20q-87 0 -87 -60q0 -64 95 -65q27 0 52.5 3.5t57.5 14.5v-110q-30 -17 -59.5 -25t-72.5 -8q-44 0 -86.5 11 t-73.5 34t-51 58t-20 87z" />
<glyph unicode="&#xe4f;" horiz-adv-x="1199" d="M132 528q0 97 36 182t100 149t150 101t182 37t182 -37t150.5 -101t100 -149t35.5 -182t-35.5 -183t-100 -149.5t-150.5 -101t-182 -37.5t-182 37.5t-150 101t-100 149t-36 183.5zM204 528q0 -83 31 -154.5t84.5 -126t126.5 -85t154 -30.5q82 0 154 30.5t126 85t85.5 126 t31.5 154.5q0 82 -31.5 153.5t-85.5 126t-126 85t-154 30.5q-81 0 -154 -30.5t-126.5 -85t-84.5 -126.5t-31 -153zM328 525q0 56 21.5 107.5t58.5 88t86 57t104 20.5q57 0 106 -20.5t86.5 -58t58.5 -87t21 -104.5q0 -57 -22 -107t-58.5 -86t-85.5 -57t-104 -21 q-57 0 -106 21t-86.5 57t-58.5 85.5t-21 104.5zM443 525q0 -63 46 -109t111 -46q63 0 108 45t45 113q0 64 -45 109t-110 45q-63 0 -109 -46.5t-46 -110.5z" />
<glyph unicode="&#xe50;" horiz-adv-x="1401" d="M105 532q0 130 47.5 232t129 173.5t190 109t231.5 37.5q122 0 229.5 -37.5t189 -109t128.5 -174t47 -231.5t-47 -231.5t-128.5 -174t-190 -108.5t-232.5 -37q-121 0 -228.5 37t-189 108.5t-129 174t-47.5 231.5zM288 532q0 -92 33 -166t89 -124.5t130.5 -76.5t160.5 -26 t160.5 26t131 76.5t89 124.5t32.5 166q0 93 -32.5 166t-89 124t-131 77t-160.5 26t-160.5 -26t-130.5 -77t-89 -124t-33 -166z" />
<glyph unicode="&#xe51;" horiz-adv-x="1407" d="M97 550q0 117 42.5 214.5t119.5 169t186 111t241 39.5q142 0 256.5 -46t195.5 -132t123 -206t42 -264q0 -154 -51.5 -279.5t-140.5 -215.5t-207.5 -139.5t-252.5 -49.5h-76l17 151h71q82 0 163.5 34t147.5 100t106.5 165.5t40.5 227.5q0 112 -31 205t-87.5 157t-138 98.5 t-182.5 34.5q-93 0 -167.5 -28.5t-129.5 -78.5t-84.5 -119.5t-29.5 -151.5q0 -153 82.5 -234.5t205.5 -81.5q50 0 99.5 11.5t86.5 25.5q2 -44 5 -75t7 -74q-48 -25 -96 -35.5t-102 -10.5q-95 0 -179 30.5t-146 90.5t-99.5 148t-37.5 208z" />
<glyph unicode="&#xe52;" horiz-adv-x="1643" d="M162 427v804h180v-804q0 -139 68.5 -204t178.5 -65h473q109 0 177.5 65t68.5 204v264q0 107 -34 159.5t-113 61.5l-176 -138l-190 143q-57 -11 -87.5 -64t-30.5 -110q0 -77 52 -126.5t122 -71.5l-48 -138q-136 24 -214.5 110.5t-78.5 220.5q0 147 80.5 236.5t212.5 109.5 l182 -161l166 161q181 -17 261 -119.5t80 -280.5v-257q0 -95 -28.5 -173t-81 -134t-130.5 -88t-179 -32h-494q-103 0 -181.5 32t-131 88t-78.5 134t-26 173z" />
<glyph unicode="&#xe53;" horiz-adv-x="1451" d="M124 530q0 122 21.5 224t67.5 175t114.5 114t160.5 41q110 0 166.5 -45t81.5 -112q32 66 90 111.5t164 45.5q79 0 137.5 -26t97 -74t56.5 -113t18 -143v-728h-183v730q0 36 -4 70.5t-18 63t-41 45t-73 16.5q-90 0 -126 -55.5t-36 -154.5v-319h-165v319q0 99 -32 154.5 t-114 55.5q-56 0 -95 -29.5t-63 -81t-33.5 -124t-9.5 -158.5q0 -191 54.5 -294.5t149.5 -103.5q29 0 55.5 5.5t49.5 14.5l36 -125q-62 -42 -147 -42q-91 0 -161 39.5t-118.5 111t-74.5 171.5t-26 221z" />
<glyph unicode="&#xe54;" horiz-adv-x="1342" d="M105 525q0 134 46.5 234.5t125.5 167.5t188.5 101t233.5 34h224q61 0 98.5 11t58.5 29.5t28.5 45t7.5 57.5v26h183v-26q0 -146 -85 -224t-257 -78h-256q-92 0 -168 -20.5t-130.5 -66t-84.5 -116.5t-30 -170q0 -90 24 -164t66 -125.5t98 -79t120 -27.5q65 0 109.5 18 t79.5 49q-53 78 -53 179q0 66 22 118t59.5 87t87 53.5t104.5 18.5h153l-34 -153h-77q-57 0 -98 -40t-41 -110q0 -95 64 -147.5t198 -52.5h112l-34 -154h-102q-110 0 -176.5 20t-120.5 77q-41 -50 -106.5 -84.5t-188.5 -34.5q-97 0 -179.5 38.5t-141.5 110t-93.5 172.5 t-34.5 226z" />
<glyph unicode="&#xe55;" horiz-adv-x="1342" d="M105 525q0 193 92.5 316.5t245.5 178.5q-12 21 -17.5 45t-5.5 49q0 44 16.5 83t43.5 66t65 43.5t82 16.5q42 0 80 -16.5t65.5 -43.5t44 -66t16.5 -83q0 -31 -7 -52h97q61 0 98.5 11t58.5 29.5t28.5 45t7.5 57.5v26h183v-26q0 -146 -85 -224t-257 -78h-256 q-92 0 -168 -20.5t-130.5 -66t-84.5 -116.5t-30 -170q0 -90 24 -164t66 -125.5t98 -79t120 -27.5q65 0 109.5 18t79.5 49q-53 78 -53 179q0 66 22 118t59.5 87t87 53.5t104.5 18.5h153l-34 -153h-77q-57 0 -98 -40t-41 -110q0 -95 64 -147.5t198 -52.5h112l-34 -154h-102 q-110 0 -176.5 20t-120.5 77q-41 -50 -106.5 -84.5t-188.5 -34.5q-97 0 -179.5 38.5t-141.5 110t-93.5 172.5t-34.5 226zM545 1116q0 -33 24.5 -57.5t57.5 -24.5q35 0 58 25t23 57q0 38 -23.5 61t-57.5 23q-33 0 -57.5 -23t-24.5 -61z" />
<glyph unicode="&#xe56;" horiz-adv-x="1355" d="M22 1253h185l112 -343q57 80 162.5 127t230.5 47q114 0 213 -39.5t172 -112t113 -173t40 -220.5q0 -110 -33.5 -212.5t-106 -179t-184.5 -123t-269 -46.5q-117 0 -210 30t-159 82t-102.5 126t-36.5 164q0 67 29 127t61 95l137 -98q-24 -25 -37.5 -65.5t-13.5 -73.5 q0 -44 22.5 -85t64 -72.5t103.5 -51t140 -19.5q103 0 181.5 29.5t129.5 83.5t76.5 128.5t25.5 166.5q0 84 -26 154.5t-75.5 122t-117.5 80t-150 28.5q-137 0 -219 -49.5t-140 -130.5h-142z" />
<glyph unicode="&#xe57;" horiz-adv-x="1768" d="M124 530q0 122 24 224t70 175t114 114t156 41q97 0 142 -42t63 -106q31 63 90 105.5t156 42.5q59 0 105.5 -26t79 -74t49 -113t16.5 -143v-589h53q84 0 134.5 60t50.5 168v864h182v-835q0 -85 -23 -158t-69 -126t-115.5 -82.5t-161.5 -29.5h-229v730q0 36 -3 70.5 t-15.5 63t-36.5 45t-66 16.5q-57 0 -88 -40.5t-31 -103.5v-122h-160v122q0 59 -24.5 101.5t-82.5 42.5q-56 0 -94.5 -29.5t-61.5 -81t-32.5 -124t-9.5 -158.5q0 -191 59 -294.5t145 -103.5q29 0 56.5 5.5t48.5 14.5l36 -125q-33 -24 -68.5 -33t-78.5 -9q-91 0 -161 39.5 t-118.5 111t-74.5 171.5t-26 221z" />
<glyph unicode="&#xe58;" horiz-adv-x="1399" d="M149 346v269q0 93 34.5 173t96.5 142t151.5 97t202.5 35h266q60 0 98 11t59 29.5t28 45t7 57.5v26h183v-26q0 -146 -85.5 -224t-257.5 -78h-286q-156 0 -235 -84.5t-79 -216.5v-252q0 -77 47.5 -135.5t117.5 -58.5l246 238l262 -236q73 19 109 76.5t36 132.5 q0 88 -54 144t-131 68l57 136q63 -6 118.5 -37.5t95 -79.5t62.5 -109.5t23 -125.5q0 -77 -29 -144.5t-79 -117t-111.5 -79t-125.5 -31.5l-233 216l-204 -216q-172 4 -281 93.5t-109 261.5z" />
<glyph unicode="&#xe59;" horiz-adv-x="1373" d="M92 530q0 122 32 224t86 175t127.5 114t159.5 41q65 0 111.5 -12.5t81 -35t59.5 -53.5t44 -66q-6 88 44.5 127.5t117.5 39.5q70 0 114.5 -30t71.5 -87l47 264h165l-84 -440h-130q-19 55 -51.5 100t-89.5 45t-89 -46t-32 -103l269 -787h-181l-257 732q-32 93 -73 142 t-128 49q-52 0 -96 -28.5t-73.5 -81t-46 -124t-16.5 -157.5q0 -94 19.5 -169t50.5 -128t71.5 -80.5t85.5 -27.5q28 0 66 10t69 30l37 -125q-38 -27 -83.5 -44t-95.5 -17q-84 0 -156.5 35.5t-127.5 105t-87 173t-32 235.5z" />
<glyph unicode="&#xe5b;" horiz-adv-x="2507" d="M132 636q0 105 33 196t94.5 157t148.5 103.5t194 37.5q91 0 164.5 -35.5t126.5 -94.5t83.5 -135t32.5 -154h-149q-9 118 -79 197.5t-183 79.5q-76 0 -132.5 -31.5t-96 -81t-59.5 -112t-20 -127.5q0 -86 30 -155.5t82.5 -119.5t123 -77.5t151.5 -27.5q146 0 246.5 69 t166.5 173t99.5 228.5t39.5 236.5h99l160 -461l121 415h97l138 -395l108 346h83q22 -169 86.5 -266t171.5 -97q63 0 128 23l43 -115q-56 -17 -106 -25t-87 -8q-98 0 -169 51t-115 149l-95 -312h-82l-146 395l-134 -434h-85l-137 389q-30 -108 -88.5 -201.5t-140.5 -163 t-185 -109t-217 -39.5q-118 0 -218.5 41t-172.5 111.5t-113 167.5t-41 211z" />
<glyph unicode="&#x2000;" horiz-adv-x="1127" />
<glyph unicode="&#x2001;" horiz-adv-x="2255" />
<glyph unicode="&#x2002;" horiz-adv-x="1127" />
<glyph unicode="&#x2003;" horiz-adv-x="2255" />
<glyph unicode="&#x2004;" horiz-adv-x="751" />
<glyph unicode="&#x2005;" horiz-adv-x="563" />
<glyph unicode="&#x2006;" horiz-adv-x="375" />
<glyph unicode="&#x2007;" horiz-adv-x="375" />
<glyph unicode="&#x2008;" horiz-adv-x="281" />
<glyph unicode="&#x2009;" horiz-adv-x="450" />
<glyph unicode="&#x200a;" horiz-adv-x="124" />
<glyph unicode="&#x2010;" horiz-adv-x="711" d="M66 517v150h580v-150h-580z" />
<glyph unicode="&#x2011;" horiz-adv-x="711" d="M66 517v150h580v-150h-580z" />
<glyph unicode="&#x2012;" horiz-adv-x="711" d="M66 517v150h580v-150h-580z" />
<glyph unicode="&#x2013;" horiz-adv-x="1128" d="M66 495v127h998v-127h-998z" />
<glyph unicode="&#x2014;" horiz-adv-x="2184" d="M154 495v127h1877v-127h-1877z" />
<glyph unicode="&#x2018;" horiz-adv-x="474" d="M132 1126q0 42 12 93.5t30.5 104.5t42.5 100.5t51 85.5l78 -15q-17 -31 -34.5 -68.5t-28 -73t-17.5 -67t-7 -50.5q0 -30 22 -30q44 0 66.5 -27.5t22.5 -77.5t-29.5 -80.5t-86.5 -30.5q-122 0 -122 136z" />
<glyph unicode="&#x2019;" horiz-adv-x="474" d="M105 1398q0 52 30 82t87 30q122 0 120 -136q0 -42 -11.5 -93.5t-30.5 -104t-43 -102.5t-50 -84l-77 15q17 31 33.5 68t27 73.5t18 67t7.5 50.5q0 30 -23 29q-44 0 -66 27t-22 78z" />
<glyph unicode="&#x201a;" horiz-adv-x="474" d="M105 149q0 51 30 82t87 31q122 0 120 -137q0 -41 -11.5 -92.5t-30.5 -104.5t-43 -102.5t-50 -84.5l-77 15q17 31 33.5 68t27 73.5t18 67t7.5 50.5q0 29 -23 29q-44 0 -66 27.5t-22 77.5z" />
<glyph unicode="&#x201c;" horiz-adv-x="826" d="M132 1126q0 42 12 93.5t30.5 104.5t42.5 100.5t51 85.5l78 -15q-17 -31 -34.5 -68.5t-28 -73t-17.5 -67t-7 -50.5q0 -30 22 -30q44 0 66.5 -27.5t22.5 -77.5t-29.5 -80.5t-86.5 -30.5q-122 0 -122 136zM484 1126q0 42 11.5 93.5t30.5 104.5t43.5 100.5t50.5 85.5l76 -15 q-17 -31 -33.5 -68.5t-27 -73t-17.5 -67t-7 -50.5q0 -30 23 -30q43 0 65 -27.5t22 -77.5t-30 -80.5t-87 -30.5q-121 0 -120 136z" />
<glyph unicode="&#x201d;" horiz-adv-x="826" d="M105 1398q0 52 30 82t87 30q122 0 120 -136q0 -42 -11.5 -93.5t-30.5 -104t-43 -102.5t-50 -84l-77 15q17 31 33.5 68t27 73.5t18 67t7.5 50.5q0 30 -23 29q-44 0 -66 27t-22 78zM457 1398q0 52 30 82t88 30q120 0 119 -136q0 -42 -11.5 -93.5t-30 -104t-43 -102.5 t-50.5 -84l-77 15q17 31 33.5 68t27.5 73.5t17.5 67t6.5 50.5q0 30 -22 29q-43 0 -65.5 27t-22.5 78z" />
<glyph unicode="&#x201e;" horiz-adv-x="826" d="M105 149q0 51 30 82t87 31q122 0 120 -137q0 -41 -11.5 -92.5t-30.5 -104.5t-43 -102.5t-50 -84.5l-77 15q17 31 33.5 68t27 73.5t18 67t7.5 50.5q0 29 -23 29q-44 0 -66 27.5t-22 77.5zM457 149q0 51 30 82t88 31q120 0 119 -137q0 -41 -11.5 -92.5t-30 -104.5 t-43 -102.5t-50.5 -84.5l-77 15q17 31 33.5 68t27.5 73.5t17.5 67t6.5 50.5q0 29 -22 29q-43 0 -65.5 27.5t-22.5 77.5z" />
<glyph unicode="&#x2020;" horiz-adv-x="1191" d="M132 912v150h373v419h181v-419h373v-150h-373v-912h-181v912h-373z" />
<glyph unicode="&#x2021;" horiz-adv-x="1191" d="M132 311v149h373v452h-373v150h373v419h181v-419h373v-150h-373v-452h373v-149h-373v-420h-181v420h-373z" />
<glyph unicode="&#x2022;" horiz-adv-x="680" d="M109 751q0 95 57.5 162t173.5 67q114 0 172.5 -65.5t58.5 -157.5q0 -93 -58 -162.5t-175 -69.5q-114 0 -171.5 67t-57.5 159z" />
<glyph unicode="&#x2026;" horiz-adv-x="1595" d="M132 109q0 55 34.5 93.5t99.5 38.5q64 0 99 -38t35 -94q0 -54 -35 -92.5t-99 -38.5q-63 0 -98.5 38.5t-35.5 92.5zM663 109q0 55 35.5 93.5t99.5 38.5q63 0 98.5 -38t35.5 -94q0 -54 -35 -92.5t-99 -38.5t-99.5 38.5t-35.5 92.5zM1196 109q0 55 35 93.5t99 38.5t99 -38 t35 -94q0 -54 -35 -92.5t-99 -38.5t-99 38.5t-35 92.5z" />
<glyph unicode="&#x202f;" horiz-adv-x="450" />
<glyph unicode="&#x2030;" horiz-adv-x="2479" d="M92 1064q0 79 20 149t60 123t98 84.5t135 31.5q75 0 133 -31.5t97.5 -84.5t60.5 -123t21 -149q0 -80 -21 -150t-60.5 -123t-98 -83.5t-132.5 -30.5q-77 0 -135 30.5t-98 83.5t-60 123t-20 150zM241 1064q0 -50 9 -98.5t29 -86t51 -59.5t75 -22q43 0 74 23t51 59.5 t28.5 83.5t8.5 98q0 50 -8.5 98t-28.5 85.5t-51 61t-74 23.5q-44 0 -75 -23.5t-51 -61t-29 -85.5t-9 -96zM373 0l806 1452h153l-804 -1452h-155zM990 365q0 80 19.5 150t59 123t98 83t135.5 30q75 0 133 -30t97 -83t60 -123t21 -150q0 -79 -21 -149.5t-60 -123t-97 -83.5 t-133 -31q-78 0 -136 31t-97.5 83.5t-59 123t-19.5 149.5zM1139 365q0 -51 8.5 -99t28.5 -86t50.5 -59.5t75.5 -21.5q43 0 74 23t51 59.5t28.5 84t8.5 97.5t-8.5 98.5t-28.5 86t-51 60.5t-74 23q-45 0 -75.5 -23t-50.5 -60.5t-28.5 -86t-8.5 -96.5zM1762 365q0 80 20 150 t60 123t98.5 83t134.5 30q75 0 133 -30t98 -83t60.5 -123t20.5 -150q0 -79 -20.5 -149.5t-60.5 -123t-98 -83.5t-133 -31q-77 0 -135 31t-98 83.5t-60 123t-20 149.5zM1913 365q0 -51 8.5 -99t28.5 -86t50.5 -59.5t74.5 -21.5t75 23t50.5 59.5t28.5 84t9 97.5t-9 98.5 t-28.5 86t-50.5 60.5t-75 23t-74.5 -23t-50.5 -60.5t-28.5 -86t-8.5 -96.5z" />
<glyph unicode="&#x2039;" horiz-adv-x="608" d="M88 532l283 395h150l-283 -395l283 -395h-150z" />
<glyph unicode="&#x203a;" horiz-adv-x="606" d="M88 137l283 395l-283 395h147l284 -395l-284 -395h-147z" />
<glyph unicode="&#x2044;" horiz-adv-x="956" d="M-22 0l805 1452h153l-804 -1452h-154z" />
<glyph unicode="&#x205f;" horiz-adv-x="563" />
<glyph unicode="&#x20ac;" horiz-adv-x="1256" d="M101 530l33 107h139q-5 25 -5 51.5v52.5v39t3 40h-170l33 107h147q19 130 69 236t122.5 181.5t167 117.5t206.5 42t181.5 -31t128.5 -84l-48 -158q-51 47 -111.5 74t-138.5 27q-154 0 -254 -104t-134 -301h490l-33 -107h-467q-3 -19 -3 -39v-40v-54.5t5 -49.5h498 l-33 -107h-450q37 -184 138.5 -282.5t250.5 -98.5q80 0 144 27.5t116 73.5l48 -158q-59 -52 -133 -83t-185 -31q-110 0 -203.5 39.5t-167.5 111.5t-124 174t-75 227h-185z" />
<glyph unicode="&#x2113;" horiz-adv-x="876" d="M22 387q61 37 118.5 77t113.5 88v482q0 262 78.5 380t212.5 118q119 0 192.5 -84.5t73.5 -259.5q0 -205 -94.5 -373.5t-278.5 -307.5v-157q0 -119 29.5 -163.5t107.5 -44.5q59 0 111 23l46 -146q-31 -17 -71.5 -27.5t-91.5 -10.5q-95 0 -155 23t-96.5 70.5t-50 116 t-13.5 161.5v53l-168 -109zM438 677q109 99 153.5 233t44.5 278q0 114 -22 164.5t-67 50.5q-26 0 -47 -16.5t-35 -58.5t-20.5 -113.5t-6.5 -180.5v-357z" />
<glyph unicode="&#x2122;" horiz-adv-x="1710" d="M44 1374v107h625v-107l-251 3v-728h-128v728zM803 649v832h147l196 -441q15 -33 29 -70.5t25 -74.5h3q10 38 24.5 75t29.5 70l197 441h147v-832h-126v502q0 38 3 68.5t6 60.5h-5q-4 -17 -14.5 -47t-29.5 -70l-169 -380h-129l-170 380q-17 40 -28.5 70t-15.5 47h-4 q3 -30 5.5 -60.5t2.5 -68.5v-502h-124z" />
<glyph unicode="&#x2126;" horiz-adv-x="1653" d="M154 840q0 151 47 273.5t134 209.5t211.5 134t279.5 47q154 0 279.5 -47t212.5 -134t134.5 -209t47.5 -274q0 -127 -36.5 -231.5t-89.5 -190t-112 -148.5t-108 -105h264v-165h-482v122q53 41 117.5 107.5t122 155.5t96.5 196t39 227q0 247 -128.5 383.5t-351.5 136.5 q-229 0 -359 -136.5t-130 -383.5q0 -120 39 -227t96.5 -196t121.5 -155.5t118 -107.5v-122h-482v165h264q-48 42 -107.5 105t-112.5 148.5t-89 191t-36 230.5z" />
<glyph unicode="&#x212e;" horiz-adv-x="1797" d="M80 711q0 161 64.5 296.5t175 233.5t260.5 153.5t320 55.5q169 0 318.5 -55t260.5 -151t176 -228t65 -288v-49h-1342v-402q19 -24 69 -65.5t119.5 -81.5t155.5 -69.5t176 -29.5q94 0 178.5 26.5t152.5 63.5t117.5 80t73.5 76h158q-125 -152 -305.5 -229t-372.5 -77 q-170 0 -320 54.5t-260.5 152t-175 233.5t-64.5 300zM378 741h1042v400q-24 33 -73.5 76.5t-119 81.5t-152.5 63t-177 25q-90 0 -176 -29.5t-155.5 -69.5t-119 -81.5t-69.5 -65.5v-400z" />
<glyph unicode="&#x2202;" horiz-adv-x="1317" d="M88 356q0 110 42 216.5t117.5 190t181.5 134.5t230 51q75 0 132.5 -15.5t100 -40t72.5 -54t47 -55.5q27 111 27 199q0 151 -74 231t-213 80q-83 0 -149.5 -18t-129.5 -52l-21 145q59 37 148 60.5t172 23.5q221 0 336.5 -126t115.5 -346q0 -98 -21 -211.5t-63 -225 t-103.5 -213t-141.5 -180.5t-178 -125.5t-212 -46.5q-216 0 -316 102t-100 276zM279 363q0 -107 58.5 -166.5t164.5 -59.5q70 0 141.5 32t134 97.5t113 158t81.5 211.5q-45 60 -124 105.5t-191 45.5q-88 0 -158.5 -36t-118.5 -95.5t-74.5 -135t-26.5 -157.5z" />
<glyph unicode="&#x2206;" horiz-adv-x="1373" d="M66 0l585 1481h70l587 -1481h-1242zM294 147h777l-385 1029z" />
<glyph unicode="&#x220f;" horiz-adv-x="1349" d="M198 -105v1586h953v-1586h-188v1411h-576v-1411h-189z" />
<glyph unicode="&#x2211;" horiz-adv-x="1199" d="M88 -25l554 718l-512 698v90h941v-136h-717l477 -649l-510 -665h791v-136h-1024v80z" />
<glyph unicode="&#x2212;" horiz-adv-x="1256" d="M174 550v149h910v-149h-910z" />
<glyph unicode="&#x221a;" horiz-adv-x="1141" d="M44 774v143h292l214 -730l367 1294h161l-436 -1508h-176l-242 801h-180z" />
<glyph unicode="&#x221e;" horiz-adv-x="1682" d="M119 679q0 73 25.5 131t71.5 101.5t108.5 66t137.5 22.5q65 0 120 -17.5t102.5 -46t86 -67t69.5 -80.5h4q24 34 60.5 71.5t84 68.5t104.5 51t128 20q75 0 137 -22.5t108 -65t73 -100.5t27 -128q0 -71 -24.5 -130t-68.5 -103t-107 -69.5t-141 -25.5q-124 0 -221.5 60.5 t-159.5 150.5h-4q-66 -84 -159.5 -147.5t-220.5 -63.5q-73 0 -135.5 23.5t-108.5 65t-71.5 101.5t-25.5 133zM273 682q0 -90 56 -144t143 -54q90 0 166.5 57t131.5 138q-59 89 -136.5 140t-165.5 51q-97 0 -146 -55.5t-49 -132.5zM915 679q57 -92 133 -143.5t165 -51.5 q101 0 150 60t49 138q0 77 -48.5 132.5t-152.5 55.5q-93 0 -162 -50t-134 -141z" />
<glyph unicode="&#x222b;" horiz-adv-x="948" d="M88 -80l46 146q53 -22 112 -22q84 0 110 55t26 174v837q0 93 14.5 165t51 124.5t96.5 78.5t155 26q51 0 91.5 -11.5t71.5 -28.5l-46 -144q-53 20 -113 20q-84 0 -110 -54.5t-26 -173.5v-837q0 -93 -14 -165t-50.5 -124t-96.5 -78.5t-156 -26.5q-50 0 -90.5 11t-71.5 28z " />
<glyph unicode="&#x2248;" horiz-adv-x="1256" d="M109 385q17 37 46 75.5t66.5 70t85 51.5t104.5 20q82 0 137.5 -27.5t103 -61.5t91.5 -61.5t101 -27.5q75 0 125.5 46.5t87.5 104.5l91 -96q-44 -90 -121 -155t-178 -65q-81 0 -138.5 28.5t-106 61.5t-92.5 62t-97 29q-83 0 -130 -46t-85 -106zM109 778q17 38 46 76 t66.5 70.5t85 52.5t104.5 20q82 0 137.5 -28t103 -62t91.5 -61.5t101 -27.5q75 0 125.5 46t87.5 103l91 -94q-44 -90 -121 -155t-178 -65q-81 0 -138.5 29t-106 61.5t-92.5 61t-97 28.5q-83 0 -130 -46t-85 -105z" />
<glyph unicode="&#x2260;" horiz-adv-x="1256" d="M184 352v150h321l99 245h-420v151h479l151 373h146l-149 -373h262v-151h-322l-98 -245h420v-150h-479l-139 -352h-147l138 352h-262z" />
<glyph unicode="&#x2264;" horiz-adv-x="1256" d="M145 0v127h937v-127h-937zM145 674v121l937 508v-174l-750 -395l750 -394v-175z" />
<glyph unicode="&#x2265;" horiz-adv-x="1256" d="M176 0v127h936v-127h-936zM176 165v175l749 394l-749 395v174l936 -508v-121z" />
<glyph unicode="&#x25ca;" horiz-adv-x="1292" d="M88 750l504 754h109l504 -753l-504 -751h-109zM266 751l380 -560l378 560l-378 560z" />
<glyph unicode="&#x25fc;" horiz-adv-x="1064" d="M0 0v1064h1064v-1064h-1064z" />
<glyph unicode="&#xe000;" horiz-adv-x="1065" d="M0 0v1066h1066v-1066h-1066z" />
<glyph unicode="&#xf700;" horiz-adv-x="1191" d="M31 1080q93 77 217.5 125t263.5 48q163 0 283 -64l111 129h215l-191 -229q151 -164 152 -434q0 -145 -40 -264.5t-112 -206.5t-172.5 -135.5t-220.5 -48.5h-155l-118 495q-7 28 -20 38t-37 10h-83v162h98q92 0 142.5 -34.5t75.5 -138.5l85 -369h29q65 0 126 33t108 95.5 t75.5 155t28.5 210.5q0 227 -98 330.5t-280 103.5q-125 0 -234.5 -45.5t-189.5 -113.5z" />
<glyph unicode="&#xf701;" d="M-1297 1398v154h833v-154h-833z" />
<glyph unicode="&#xf702;" d="M-1297 1398v154h655v202h178v-356h-833z" />
<glyph unicode="&#xf703;" d="M-1297 1398v154h499q-2 11 -3.5 21.5t-1.5 20.5q0 84 56 140t138 56q84 0 140 -56t56 -140q0 -82 -54 -136.5t-133 -59.5h-9h-6h-682zM-684 1596q0 -30 22.5 -54.5t52.5 -24.5q33 0 55 24.5t22 54.5q0 33 -22.5 55.5t-54.5 22.5q-30 0 -52.5 -22.5t-22.5 -55.5z" />
<glyph unicode="&#xf704;" d="M-1297 1398v154h405v202h156v-206h116v206h156v-356h-833z" />
<glyph unicode="&#xf705;" d="M-781 1398v364h185v-364h-185z" />
<glyph unicode="&#xf706;" d="M-1014 1601v153h181q62 0 98 -26.5t36 -83.5v-54q0 -18 7.5 -28t32.5 -10h340v-154h-444q-38 0 -66.5 27t-28.5 70v61q0 25 -6 35t-34 10h-116z" />
<glyph unicode="&#xf707;" d="M-1273 1519q0 71 54 133.5t160 73.5l111 -115l108 117q207 -10 187 -224q51 29 60.5 73.5t9.5 96.5q0 44 -5.5 69t-15.5 49h182q7 -19 12 -43.5t5 -70.5q0 -53 -19 -104t-52.5 -89t-85 -62.5t-117.5 -24.5h-110l-19 37q22 25 23 62q0 73 -68 74l-93 -85l-90 80 q-31 0 -50.5 -21.5t-19.5 -47.5q0 -25 3.5 -46.5t18.5 -56.5h-169q-11 28 -15.5 63.5t-4.5 61.5z" />
<glyph unicode="&#xf708;" d="M-974 1559v136l181 -4l-7 165h175l-4 -165l183 4v-136l-183 4l4 -165h-175l7 165z" />
<glyph unicode="&#xf709;" d="M-919 1394v73q0 104 60.5 162.5t183.5 58.5h213v-160h-151q-48 0 -73 -20t-25 -69v-45h-208z" />
<glyph unicode="&#xf70a;" d="M-350 1398v364h185v-364h-185z" />
<glyph unicode="&#xf70b;" d="M-671 1601v153h181q61 0 97.5 -26.5t36.5 -83.5v-54q0 -18 8 -28t32 -10h297v-154h-401q-37 0 -65.5 27t-28.5 70v61q0 25 -7 35t-33 10h-117z" />
<glyph unicode="&#xf70c;" d="M-885 1519q0 71 53.5 133.5t157.5 73.5l124 -115l120 117q207 -10 186 -224q51 29 72 73.5t21 96.5q0 44 -6 69t-17 49h183q6 -19 12 -43.5t6 -70.5q0 -53 -22 -104t-60.5 -89t-93.5 -62.5t-122 -24.5h-109l-18 37q21 25 22 62q0 73 -69 74l-102 -85l-102 80 q-30 0 -50 -21.5t-20 -47.5q0 -25 3.5 -46.5t19.5 -56.5h-170q-11 28 -15 63.5t-4 61.5z" />
<glyph unicode="&#xf70d;" d="M-521 1559v136l181 -4l-8 165h176l-4 -165l183 4v-136l-183 4l4 -165h-176l8 165z" />
<glyph unicode="&#xf70e;" d="M-510 1394v73q0 104 60.5 162.5t183.5 58.5h214v-160h-152q-49 0 -73.5 -20t-24.5 -69v-45h-208z" />
<glyph unicode="&#xf70f;" horiz-adv-x="2026" d="M105 884q18 71 65.5 138t116.5 118t158.5 82t190.5 31q121 0 210.5 -35t149 -99t89 -150.5t29.5 -192.5v-354q0 -136 66 -208.5t211 -72.5q150 0 216.5 72.5t66.5 208.5v809h189v-809q0 -117 -34.5 -201t-96.5 -138t-147 -79.5t-191 -25.5t-192 25.5t-147 79.5 t-95.5 138.5t-34.5 200.5v354q0 158 -75.5 236.5t-213.5 78.5q-113 0 -204.5 -54.5t-125.5 -141.5l166 -154q-59 -31 -87.5 -76t-28.5 -115v-334q0 -27 10 -42.5t41 -15.5h118v-158h-169q-90 0 -139.5 56t-49.5 142v324q0 64 31 121.5t88 86.5z" />
<glyph unicode="&#xf710;" d="M-939 1596v88h180v-66q0 -66 63 -66h496v-154h-517q-223 0 -222 198z" />
<glyph unicode="&#xf711;" d="M-930 1587q0 47 16 86t46.5 69.5t69.5 47.5t86 17q45 0 85 -17t69.5 -47.5t47 -69.5t17.5 -86q0 -45 -17.5 -86t-47 -70.5t-69.5 -46t-85 -16.5q-47 0 -86 16.5t-69.5 46t-46.5 70.5t-16 86zM-806 1590q0 -40 28 -68.5t66 -28.5q41 0 67.5 28.5t26.5 68.5q0 42 -26.5 68 t-67.5 26q-38 0 -66 -26t-28 -68z" />
<glyph unicode="&#xf712;" d="M-1181 1624q0 49 16.5 92.5t49.5 79.5t86 56.5t126 20.5h450v-149h-445q-59 0 -83 -31t-24 -71q0 -39 24 -65.5t73 -26.5q38 0 65 28.5t34 59.5h106q9 -32 34 -49t73 -17h145v-154h-136q-57 0 -100 30t-64 76q-16 -46 -62.5 -80.5t-125.5 -34.5q-57 0 -102.5 20t-76 53 t-47 74.5t-16.5 87.5z" />
<glyph unicode="&#xf713;" d="M-638 1863v293h176v-293h-176z" />
<glyph unicode="&#xf714;" d="M-885 2042v154h177q57 0 90.5 -25t33.5 -77v-49q0 -31 30 -31h298v-151h-397q-38 0 -65 23.5t-27 63.5v57q0 17 -4 26t-24 9h-112z" />
<glyph unicode="&#xf715;" d="M-1057 1972q0 66 49.5 124.5t148.5 66.5l111 -101l104 103q191 -7 174 -198q43 20 57 54.5t14 103.5q0 30 -5.5 52.5t-17.5 45.5h176q7 -17 11 -38.5t6 -46.5q0 -58 -19 -107.5t-55.5 -86.5t-86 -59t-111.5 -22h-87l-19 36q20 19 21 53q0 32 -19 47t-46 17l-97 -77 l-96 70q-24 0 -38.5 -16.5t-14.5 -40.5q0 -17 4.5 -39.5t19.5 -54.5h-166q-11 32 -14.5 61t-3.5 53z" />
<glyph unicode="&#xf716;" d="M-783 1991v132l157 -4l-7 136h165l-4 -136l157 4v-132l-157 6l4 -134h-165l7 134z" />
<glyph unicode="&#xf717;" d="M-760 1674v69q0 95 55.5 150t168.5 55h198v-154h-143q-40 0 -60.5 -17t-20.5 -57v-46h-198z" />
<glyph unicode="&#xf718;" d="M-482 -514h144q92 0 132.5 -44t40.5 -143v-214h-185v196q0 45 -46 45h-86v160z" />
<glyph unicode="&#xf719;" d="M-853 -514h297v-194q0 -50 30.5 -72.5t74.5 -22.5t74.5 22t30.5 73v194h181v-194q0 -111 -73 -171t-213 -60q-141 0 -211 59.5t-70 171.5v39h-121v155z" />
<glyph unicode="&#xf71a;" d="M-415 -644q0 57 42.5 98.5t99.5 41.5q61 0 103.5 -41.5t42.5 -98.5t-42.5 -98t-103.5 -41q-57 0 -99.5 41t-42.5 98z" />
<glyph unicode="&#xf71b;" horiz-adv-x="1349" d="M66 0v158h96q30 0 40 15.5t10 42.5v291q0 64 30.5 121.5t87.5 86.5l-203 169q18 71 67.5 138t122 118t166.5 82t199 31q126 0 220.5 -35t156.5 -99t94.5 -150.5t32.5 -192.5v-1172h-236q-55 50 -126 85.5t-161 35.5q-109 0 -182.5 -31.5t-147.5 -89.5l-50 146 q64 57 154.5 96.5t201.5 39.5q106 0 203 -46.5t155 -105.5v1042q0 158 -82 236.5t-233 78.5q-126 0 -222.5 -54.5t-131.5 -141.5l189 -169q-60 -32 -88.5 -77t-28.5 -114v-337q0 -86 -49 -143t-139 -55h-146z" />
<glyph unicode="&#xf71c;" horiz-adv-x="1349" d="M66 0v158h96q30 0 40 15.5t10 42.5v291q0 64 30.5 121.5t87.5 86.5l-203 169q18 71 67.5 138t122 118t166.5 82t199 31q126 0 220.5 -35t156.5 -99t94.5 -150.5t32.5 -192.5v-1172h-181l-262 157q-35 -77 -112 -123.5t-163 -46.5q-79 0 -153 19t-119 50l48 160 q46 -32 105.5 -55.5t107.5 -23.5q93 0 162 62.5t86 154.5l292 -174v992q0 158 -82 236.5t-233 78.5q-126 0 -222.5 -54.5t-131.5 -141.5l189 -169q-60 -32 -88.5 -77t-28.5 -114v-337q0 -86 -49 -143t-139 -55h-146z" />
<glyph unicode="&#xf71d;" horiz-adv-x="1449" d="M170 0v1231h184v-656q0 -102 -3 -187.5t-18 -173.5h5q22 77 43.5 138t50.5 122l214 411h149l221 -408q33 -62 56 -131t40 -132h4q-10 88 -14.5 173t-4.5 188v199q0 92 -38.5 132t-101.5 40h-42l-27 78l233 294h207l-248 -280q99 -13 150.5 -84.5t51.5 -177.5v-776h-202 l-289 556q-26 50 -44.5 103t-22.5 77h-5q-4 -24 -23 -77t-45 -103l-280 -556h-201z" />
<glyph horiz-adv-x="1041" d="M-930 1587q0 47 16 86t46.5 69.5t69.5 47.5t86 17q45 0 85 -17t69.5 -47.5t47 -69.5t17.5 -86q0 -45 -17.5 -86t-47 -70.5t-69.5 -46t-85 -16.5q-47 0 -86 16.5t-69.5 46t-46.5 70.5t-16 86zM-806 1590q0 -40 28 -68.5t66 -28.5q41 0 67.5 28.5t26.5 68.5q0 42 -26.5 68 t-67.5 26q-38 0 -66 -26t-28 -68zM22 1104q33 28 80 56t103.5 48.5t116.5 32.5t123 12q215 0 323.5 -122t108.5 -346v-785h-189v793q0 297 -261 298q-106 0 -198 -38.5t-156 -92.5z" />
<glyph d="M-919 1584q0 81 55 135t176 41q-13 16 -20 36t-7 39q0 45 38 75.5t118 30.5h132l31 -123h-132q-17 0 -26.5 -11t-9.5 -29q0 -35 54 -61l-35 -93q-66 20 -130 20q-86 0 -86 -60q0 -64 94 -65q28 0 54 3.5t57 14.5v-110q-29 -17 -58.5 -25t-73.5 -8t-86 11t-73.5 34 t-51.5 58t-20 87z" />
</font>
</defs>
</svg>
